<svg width="532" height="358" viewBox="0 0 532 358" fill="none" xmlns="http://www.w3.org/2000/svg">
<path fill-rule="evenodd" clip-rule="evenodd" d="M469.65 89.295V318.9C469.647 329.049 465.615 338.782 458.438 345.958C451.262 353.134 441.529 357.167 431.38 357.17H99.7198C89.5717 357.166 79.8405 353.132 72.6651 345.956C65.4897 338.78 61.4577 329.048 61.4551 318.9V38.27C61.4577 28.1218 65.4897 18.39 72.6651 11.2137C79.8405 4.03738 89.5717 0.0039762 99.7198 0H227.28L278.305 51.0248H431.38C441.528 51.0288 451.259 55.0625 458.435 62.2388C465.61 69.4151 469.642 79.1469 469.645 89.295H469.65Z" fill="#3B49B5"/>
<path fill-rule="evenodd" clip-rule="evenodd" d="M95.85 53.235L290.37 39.6351C293.015 39.4496 295.626 40.3225 297.628 42.0619C299.63 43.8012 300.859 46.2645 301.045 48.91L319.53 313.26C319.716 315.906 318.843 318.516 317.103 320.518C315.364 322.52 312.9 323.749 310.255 323.935L115.73 337.535C113.085 337.72 110.474 336.848 108.472 335.108C106.47 333.369 105.241 330.905 105.055 328.26L86.5699 63.91C86.3844 61.2645 87.2573 58.6536 88.9967 56.6517C90.7361 54.6498 93.2045 53.4207 95.85 53.235Z" fill="#D5D5D5"/>
<path fill-rule="evenodd" clip-rule="evenodd" d="M173.14 41.1798L367.875 51.38C369.187 51.4491 370.472 51.7758 371.657 52.3416C372.842 52.9075 373.905 53.7013 374.783 54.6777C375.662 55.6542 376.339 56.7942 376.777 58.0325C377.215 59.2709 377.404 60.5832 377.335 61.8948L363.47 326.53C363.401 327.841 363.075 329.127 362.51 330.313C361.945 331.498 361.151 332.56 360.175 333.439C359.2 334.318 358.06 334.996 356.822 335.435C355.584 335.873 354.272 336.064 352.96 335.995L158.225 325.785C155.577 325.645 153.093 324.46 151.319 322.489C149.545 320.518 148.626 317.923 148.765 315.275L162.63 50.64C162.77 47.9919 163.955 45.5076 165.926 43.7335C167.897 41.9595 170.492 41.0409 173.14 41.1798Z" fill="#EBEBEB"/>
<path fill-rule="evenodd" clip-rule="evenodd" d="M216.19 62.0549L410.12 41.6749C412.758 41.3979 415.397 42.1799 417.458 43.849C419.519 45.5181 420.833 47.9375 421.11 50.5751L448.81 314.125C449.087 316.762 448.305 319.402 446.636 321.463C444.967 323.524 442.548 324.838 439.91 325.115L245.98 345.495C243.342 345.772 240.703 344.99 238.642 343.321C236.581 341.652 235.267 339.233 234.99 336.595L207.29 73.0452C207.013 70.4076 207.795 67.7679 209.464 65.7069C211.133 63.6459 213.552 62.3321 216.19 62.0549Z" fill="white"/>
<path fill-rule="evenodd" clip-rule="evenodd" d="M100.995 80.755H430.105C440.714 80.755 450.888 84.9692 458.389 92.4707C465.891 99.9722 470.105 110.146 470.105 120.755V316.46C470.105 327.069 465.891 337.243 458.389 344.744C450.888 352.246 440.714 356.46 430.105 356.46H101C90.3913 356.46 80.2172 352.246 72.7157 344.744C65.2142 337.243 61 327.069 61 316.46V120.755C61 110.146 65.2142 99.9722 72.7157 92.4707C80.2172 84.9692 90.3913 80.755 101 80.755H100.995Z" fill="#4C5FF9"/>
</svg>
