<svg width="346" height="248" viewBox="0 0 346 248" fill="none" xmlns="http://www.w3.org/2000/svg">
<g clip-path="url(#clip0_26_110)">
<mask id="mask0_26_110" style="mask-type:luminance" maskUnits="userSpaceOnUse" x="-32" y="-65" width="390" height="390">
<path d="M357.486 -64.7721H-31.8237V324.011H357.486V-64.7721Z" fill="white"/>
</mask>
<g mask="url(#mask0_26_110)">
<path d="M346.167 238.678C346.167 244.057 317.53 248.417 282.205 248.417C246.879 248.417 218.242 244.057 218.242 238.678C218.242 233.299 246.879 228.939 282.205 228.939C317.53 228.939 346.167 233.299 346.167 238.678Z" fill="#CBC8FF"/>
<path d="M255.26 187.855C257.336 188.011 259.157 188.558 260.602 189.441C262.367 190.516 265.893 191.358 266.296 193.314C266.475 194.152 266.078 194.74 265.94 195.715C279.766 190.098 299.192 173.274 303.844 163.282C304.27 162.373 304.553 161.527 304.683 160.763C304.902 159.472 304.544 158.166 303.556 156.732C293.403 142.005 258.248 124.164 231.317 118.094C229.309 117.641 227.349 117.253 225.447 116.939C222.74 116.49 220.063 116.028 217.389 115.682L217.386 115.682C217.377 115.682 217.371 115.682 217.362 115.678C217.327 115.673 217.288 115.669 217.253 115.667C217.25 115.664 217.247 115.664 217.244 115.663C211.597 114.933 206.018 114.516 200.549 114.362C199.297 114.327 198.054 114.308 196.813 114.3C173.607 114.153 152.544 118.694 136.703 124.417C120.361 130.323 109.578 137.491 107.746 142.073C106.437 145.342 110.889 152.814 117.441 160.67C125.474 170.296 136.667 180.495 144.299 184.228C144.299 184.228 145.094 183.396 146.39 182.232C147.293 181.426 148.44 180.456 149.735 179.497C151.11 178.476 152.655 177.464 154.245 176.668C154.245 176.668 177.487 178.863 203.586 181.152C229.685 183.44 255.26 187.855 255.26 187.855Z" fill="#FFA9DC"/>
<path d="M304.683 160.772C304.553 161.536 304.27 162.381 303.844 163.291C302.922 164.958 301.733 166.714 300.427 168.383C300.747 167.087 301.811 164.563 301.082 163.766C279.558 140.223 250.201 124.447 223.888 117.326C221.671 116.723 219.462 116.174 217.254 115.679C217.251 115.675 217.248 115.675 217.245 115.675C217.284 115.68 217.325 115.685 217.364 115.69C217.373 115.693 217.378 115.694 217.387 115.694L217.39 115.694C220.064 116.04 222.749 116.458 225.449 116.951C227.396 117.305 229.353 117.687 231.318 118.105C258.249 124.175 293.403 142.015 303.556 156.741C304.544 158.175 304.902 159.48 304.683 160.772Z" fill="#FF90D8"/>
<path d="M255.26 187.855C257.336 188.011 259.157 188.558 260.602 189.441C262.367 190.516 265.647 191.531 266.05 193.487C266.228 194.326 266.078 194.74 265.94 195.715C279.766 190.097 299.192 173.274 303.844 163.282C304.27 162.373 304.553 161.527 304.683 160.763C304.902 159.472 304.544 158.166 303.556 156.732C293.403 142.005 258.248 124.164 231.317 118.094C229.309 117.641 227.349 117.253 225.447 116.939C222.74 116.49 220.063 116.028 217.389 115.682L217.386 115.682C217.377 115.682 217.371 115.682 217.362 115.678C217.327 115.673 217.288 115.669 217.253 115.667C217.25 115.664 217.247 115.664 217.244 115.663C211.597 114.933 206.018 114.516 200.549 114.362C199.297 114.327 198.054 114.308 196.813 114.3C173.607 114.153 152.544 118.694 136.703 124.417C120.361 130.323 109.578 137.491 107.746 142.073C106.437 145.342 110.889 152.814 117.441 160.67C125.474 170.296 136.667 180.495 144.299 184.228C144.299 184.228 145.094 183.396 146.39 182.232C147.293 181.426 148.44 180.456 149.735 179.497C151.11 178.476 152.655 177.464 154.245 176.668C154.245 176.668 177.494 177.36 203.593 179.648C229.693 181.936 255.26 187.855 255.26 187.855Z" stroke="#112C41" stroke-width="1.222" stroke-linecap="round" stroke-linejoin="round"/>
<path d="M300.68 163.307C297.926 167.581 291.586 174.175 283.567 180.821C275.99 187.099 268.732 191.915 263.98 194.042C263.579 192.092 262.383 190.526 260.626 189.455C260.615 189.446 260.609 189.443 260.609 189.443C263.651 185.18 269.624 179.088 277.028 172.95C284.882 166.441 292.39 161.507 297.124 159.507L297.127 159.507C299.593 158.466 301.305 158.22 301.923 158.964C302.515 159.678 302.028 161.215 300.68 163.307Z" fill="#112C41"/>
<path d="M300.68 163.307C297.926 167.581 291.586 174.175 283.567 180.821C275.99 187.099 268.732 191.915 263.98 194.042C263.579 192.092 262.383 190.526 260.626 189.455C260.615 189.446 260.609 189.443 260.609 189.443C263.651 185.18 269.624 179.088 277.028 172.95C284.882 166.441 292.39 161.507 297.124 159.507L297.127 159.507C299.593 158.466 301.305 158.22 301.923 158.964C302.515 159.678 302.028 161.215 300.68 163.307Z" stroke="#112C41" stroke-width="1.222" stroke-miterlimit="10"/>
<path d="M149.731 179.483C148.436 180.442 147.29 181.411 146.387 182.217C141.972 180.186 134.376 174.183 126.553 166.275C119.634 159.28 114.202 152.48 111.669 147.934C110.209 145.317 109.713 143.446 110.448 142.721C111.221 141.956 113.242 142.567 116.052 144.234C120.566 146.906 127.119 152.293 133.836 159.085C134.95 160.21 136.026 161.33 137.054 162.437C137.06 162.443 137.065 162.449 137.068 162.452C143.492 169.355 148.191 175.726 149.731 179.483Z" fill="#112C41"/>
<path d="M149.731 179.483C148.436 180.442 147.29 181.411 146.387 182.217C141.972 180.186 134.376 174.183 126.553 166.275C119.634 159.28 114.202 152.48 111.669 147.934C110.209 145.317 109.713 143.446 110.448 142.721C111.221 141.956 113.242 142.567 116.052 144.234C120.566 146.906 127.119 152.293 133.836 159.085C134.95 160.21 136.026 161.33 137.054 162.437C137.06 162.443 137.065 162.449 137.068 162.452C143.492 169.355 148.191 175.726 149.731 179.483Z" stroke="#112C41" stroke-width="1.222" stroke-miterlimit="10"/>
<path d="M223.782 119.16C223.45 122.683 217.127 124.967 209.663 124.26C202.197 123.552 196.419 120.121 196.754 116.598C196.824 115.85 197.168 115.153 197.735 114.532C198.976 114.54 200.219 114.56 201.471 114.595C206.988 114.751 212.614 115.174 218.308 115.916L218.311 115.916C219.886 116.155 221.465 116.417 223.049 116.706C223.6 117.495 223.862 118.325 223.782 119.16Z" fill="#112C41"/>
<path d="M223.782 119.16C223.45 122.683 217.127 124.967 209.663 124.26C202.197 123.552 196.419 120.121 196.754 116.598C196.824 115.85 197.168 115.153 197.735 114.532C198.976 114.54 200.219 114.56 201.471 114.595C206.988 114.751 212.614 115.174 218.308 115.916L218.311 115.916C219.886 116.155 221.465 116.417 223.049 116.706C223.6 117.495 223.862 118.325 223.782 119.16Z" stroke="#112C41" stroke-width="1.222" stroke-linecap="round" stroke-linejoin="round"/>
<path d="M261.547 177.45C251.218 197.909 228.805 211.291 203.829 209.577C179.747 207.923 159.951 192.692 151.912 172.171" fill="#FFA9DC"/>
<path d="M261.629 177.259C261.629 177.259 259.355 181.374 256.603 185.13C256.316 185.515 256.034 185.897 255.74 186.274L255.597 186.395C254.555 187.715 253.473 188.985 252.351 190.213L251.633 190.968C237.899 205.436 217.209 212.711 196.093 208.445C188.235 206.856 181.032 203.817 174.715 199.66C199.228 212.818 228.791 205.499 249.882 182.07C251.515 180.256 259.193 177.059 261.629 177.259Z" fill="#FF90D8"/>
<path d="M261.547 177.45C251.218 197.909 228.805 211.291 203.829 209.577C179.747 207.923 159.951 192.692 151.912 172.171" stroke="#112C41" stroke-width="1.222" stroke-linecap="round" stroke-linejoin="round"/>
<path d="M168.812 54.5318C167.64 59.7944 170.959 65.0081 176.226 66.1764C181.492 67.3447 186.712 64.0259 187.884 58.7633C189.057 53.5007 185.738 48.287 180.471 47.1187C175.204 45.9504 169.984 49.2692 168.812 54.5318Z" fill="#FFD6C0"/>
<path d="M176.225 66.1758C171.129 65.0451 167.855 60.1273 168.713 55.0376C169.355 58.8361 172.23 62.0482 176.225 62.9376C181.492 64.1052 186.714 60.7842 187.886 55.5212C187.923 55.3503 187.956 55.1804 187.984 55.0102C188.191 56.2223 188.168 57.4905 187.884 58.7624C186.713 64.0257 181.493 67.3434 176.225 66.1758Z" fill="#F5B9AB"/>
<path d="M188.018 58.0362C188.747 53.0285 185.495 48.2333 180.471 47.1187C175.204 45.9504 169.984 49.2695 168.812 54.5318C167.639 59.7944 170.959 65.0078 176.226 66.1761C179.001 66.7919 181.763 66.1614 183.927 64.6576" stroke="#112C41" stroke-width="1.222" stroke-linecap="round" stroke-linejoin="round"/>
<path d="M182.4 60.1194C184.113 57.3324 183.302 53.7245 180.589 52.0606C179.053 51.119 177.237 51.0019 175.639 51.583" stroke="#112C41" stroke-width="1.222" stroke-linecap="round" stroke-linejoin="round"/>
<path d="M176.128 66.3608C176.219 68.5286 174.533 70.3591 172.363 70.4493C170.193 70.5396 168.36 68.8552 168.269 66.6877C168.178 64.5199 169.864 62.6894 172.034 62.5992C174.204 62.509 176.037 64.1931 176.128 66.3608Z" fill="white"/>
<path d="M176.128 66.3608C176.219 68.5286 174.533 70.3591 172.363 70.4493C170.193 70.5396 168.36 68.8552 168.269 66.6877C168.178 64.5199 169.864 62.6894 172.034 62.5992C174.204 62.509 176.037 64.1931 176.128 66.3608Z" stroke="#112C41" stroke-width="1.222" stroke-linecap="round" stroke-linejoin="round"/>
<path d="M239.031 94.4922C227.815 110.255 205.929 113.954 190.148 102.753C174.367 91.5524 170.667 69.6939 181.884 53.9309C193.101 38.1677 214.986 34.4693 230.767 45.6699C246.548 56.8707 250.248 78.7289 239.031 94.4922Z" fill="#FFD6C0"/>
<path d="M230.584 45.6637C230.487 45.5952 230.389 45.5329 230.292 45.4655L225.956 47.6201C240.822 58.2361 244.638 78.0419 234.207 92.7011C223.757 107.387 202.965 111.346 188.031 100.746C186.549 99.6935 185.174 98.5418 183.917 97.3065C185.678 99.3065 187.695 101.137 189.965 102.747C205.746 113.948 227.631 110.25 238.847 94.4861C250.064 78.7229 246.365 56.8645 230.584 45.6637Z" fill="#F5B9AB"/>
<path d="M238.847 94.4857C227.63 110.249 205.745 113.947 189.964 102.747C174.183 91.546 170.483 69.6875 181.7 53.9245C192.916 38.1612 214.802 34.4629 230.583 45.6637C246.364 56.8643 250.064 78.7225 238.847 94.4857Z" stroke="#112C41" stroke-width="1.222" stroke-linecap="round" stroke-linejoin="round"/>
<path d="M244.476 50.1784C243.223 48.0015 241.72 45.927 239.974 43.9995C238.368 42.2261 236.559 40.579 234.553 39.0929C222.762 30.3571 207.598 29.7312 196.339 36.3822C193.287 38.1851 190.517 40.5184 188.19 43.3784C187.722 43.9539 188.183 44.4949 188.763 44.4515C194.605 44.0156 204.687 45.8547 211.498 48.21C216.042 49.7816 220.524 52.176 224.93 54.9999C226.783 56.1878 228.555 57.4366 230.242 58.7362C231.824 55.7909 232.711 52.6817 232.878 49.6893C233.971 53.0541 234.115 57.4402 233.578 61.4901C238.972 66.2321 243.545 71.6914 246.582 77.0259C246.833 77.4669 247.44 77.5811 247.647 76.9167C250.386 68.1387 249.22 58.4231 244.476 50.1784Z" fill="#B2B0F7"/>
<path d="M246.674 77.1879C245.523 75.1439 242.881 71.4334 241.362 69.4363C243.784 61.5953 243.26 49.9228 235.786 41.6744C234.348 40.09 232.728 38.6135 230.935 37.2849C229.644 36.3282 228.305 35.4766 226.933 34.7374C229.575 35.8523 232.135 37.3023 234.555 39.0951C236.56 40.5804 238.369 42.227 239.976 44.0008C248.376 53.2781 251.227 65.9999 247.591 77.0937C247.455 77.5071 246.887 77.5666 246.674 77.1879Z" fill="#9797F7"/>
<path d="M244.476 50.1784C243.223 48.0015 241.72 45.927 239.974 43.9995C238.368 42.2261 236.559 40.579 234.553 39.0929C222.762 30.3571 207.598 29.7312 196.339 36.3822C193.287 38.1851 190.517 40.5184 188.19 43.3784C187.722 43.9539 188.183 44.4949 188.763 44.4515C194.605 44.0156 204.687 45.8547 211.498 48.21C216.042 49.7816 220.524 52.176 224.93 54.9999C226.783 56.1878 228.555 57.4366 230.242 58.7362C231.824 55.7909 232.711 52.6817 232.878 49.6893C233.971 53.0541 234.115 57.4402 233.578 61.4901C238.972 66.2321 243.545 71.6914 246.582 77.0259C246.833 77.4669 247.44 77.5811 247.647 76.9167C250.386 68.1387 249.22 58.4231 244.476 50.1784Z" stroke="#112C41" stroke-width="1.222" stroke-linecap="round" stroke-linejoin="round"/>
<path d="M224.99 61.5764C226.916 63.4213 227.488 65.9472 226.268 67.2188C225.048 68.4901 222.496 68.0251 220.57 66.1805C218.643 64.3356 218.071 61.8091 219.291 60.5381C220.512 59.2668 223.063 59.7315 224.99 61.5764Z" fill="#112C41"/>
<path d="M217.796 77.9073C220.057 78.2694 221.696 79.7721 221.456 81.264C221.217 82.7556 219.19 83.6715 216.929 83.3094C214.668 82.9474 213.03 81.4447 213.269 79.9527C213.509 78.4611 215.535 77.5453 217.796 77.9073Z" fill="#FFA6E0"/>
<path d="M189.818 66.1078C188.101 64.5949 185.898 64.2874 184.897 65.4204C183.896 66.5532 184.477 68.6983 186.194 70.2111C187.911 71.7239 190.114 72.0318 191.115 70.8987C192.115 69.7657 191.535 67.6206 189.818 66.1078Z" fill="#FFA6E0"/>
<path d="M196.482 49.3702C196.452 49.3695 196.423 49.369 196.393 49.3685C193.935 49.3344 191.924 50.622 191.901 52.2442C191.879 53.8471 193.806 55.1771 196.224 55.2415C196.253 55.2423 196.283 55.2428 196.312 55.2433C198.771 55.277 200.782 53.9895 200.804 52.3672C200.826 50.7646 198.899 49.4347 196.482 49.3702Z" fill="#112C41"/>
<path d="M209.306 73.4682C207.06 77.0998 203.297 78.921 200.361 77.5963C197.424 76.2715 196.305 72.2478 197.549 68.1641L209.306 73.4682Z" fill="#112C41"/>
<path d="M209.306 73.4682C207.06 77.0998 203.297 78.921 200.361 77.5963C197.424 76.2715 196.305 72.2478 197.549 68.1641L209.306 73.4682Z" stroke="#112C41" stroke-width="1.222" stroke-linecap="round" stroke-linejoin="round"/>
<path d="M198.415 75.7472C199.948 74.8502 202.145 74.9967 203.938 76.2693C204.395 76.594 204.792 76.9679 205.124 77.3736C203.527 78.1331 201.839 78.2634 200.36 77.5963C199.51 77.2124 198.812 76.6024 198.281 75.8292C198.325 75.801 198.369 75.7736 198.415 75.7472Z" fill="#FFA6E0"/>
<path d="M198.415 75.7472C199.948 74.8502 202.145 74.9967 203.938 76.2693C204.395 76.594 204.792 76.9679 205.124 77.3736C203.527 78.1331 201.839 78.2634 200.36 77.5963C199.51 77.2124 198.812 76.6024 198.281 75.8292C198.325 75.801 198.369 75.7736 198.415 75.7472Z" stroke="#112C41" stroke-width="1.222" stroke-linecap="round" stroke-linejoin="round"/>
<path d="M252.779 98.4816C248.747 102.594 242.143 102.664 238.031 98.6383C233.918 94.6125 233.852 88.0149 237.885 83.9022C241.917 79.7897 248.52 79.7197 252.634 83.7455C256.747 87.7716 256.812 94.3692 252.779 98.4816Z" fill="#FFD6C0"/>
<path d="M234.886 90.5819C235.082 91.3707 235.477 92.2401 235.873 92.9893C238.569 98.0759 245.041 99.8872 250.131 97.1914C253.471 95.4235 255.218 92.2111 255.425 88.7016C256.588 93.2528 254.778 98.0642 250.435 100.365C245.347 103.064 239.032 101.128 236.337 96.0418C235.409 94.2943 234.773 92.4262 234.886 90.5819Z" fill="#F5B9AB"/>
<path d="M238.458 83.3594C242.521 79.7918 248.71 79.9053 252.634 83.7458C256.747 87.7716 256.812 94.3689 252.779 98.4816C248.747 102.594 242.144 102.664 238.031 98.6384C235.864 96.5168 234.798 93.393 234.886 90.5832" stroke="#112C41" stroke-width="1.222" stroke-linecap="round" stroke-linejoin="round"/>
<path d="M239.995 88.2224C242.241 85.5457 246.173 85.1449 248.777 87.3263C250.252 88.5612 250.985 90.3587 250.936 92.172" stroke="#112C41" stroke-width="1.222" stroke-linecap="round" stroke-linejoin="round"/>
<path d="M242.366 100.03C242.221 102.195 240.347 103.833 238.18 103.689C236.013 103.546 234.373 101.674 234.517 99.509C234.662 97.344 236.536 95.7057 238.703 95.8496C240.87 95.9935 242.51 97.8651 242.366 100.03Z" fill="white"/>
<path d="M242.366 100.03C242.221 102.195 240.347 103.833 238.18 103.689C236.013 103.546 234.373 101.674 234.517 99.509C234.662 97.344 236.536 95.7057 238.703 95.8496C240.87 95.9935 242.51 97.8651 242.366 100.03Z" stroke="#112C41" stroke-width="1.222" stroke-linecap="round" stroke-linejoin="round"/>
<path d="M195.831 57.7629C197.095 57.8773 197.993 59.3679 197.836 61.0892C197.68 62.8105 196.526 64.1152 195.263 64.0008C193.999 63.8864 193.101 62.3959 193.258 60.6745C193.415 58.9532 194.568 57.6485 195.831 57.7629Z" fill="#122D42"/>
<path d="M218.289 68.0409C219.407 68.6393 219.65 70.3622 218.832 71.8857C218.014 73.4093 216.443 74.1604 215.324 73.5621C214.206 72.9637 213.963 71.2408 214.781 69.7173C215.599 68.1937 217.17 67.4426 218.289 68.0409Z" fill="#122D42"/>
<path d="M270.775 5.90581C281.29 13.3755 285.595 27.439 278.86 37.2946C272.125 47.1505 257.237 48.9046 246.4 41.0736" stroke="#112C41" stroke-width="1.222" stroke-linecap="round" stroke-linejoin="round"/>
<path d="M244.812 40.1299C235.302 32.9877 233.392 19.4956 240.545 9.99465C247.698 0.493991 261.205 -1.41776 270.714 5.7244C280.224 12.8666 282.134 26.3587 274.981 35.8596C267.829 45.3603 254.321 47.272 244.812 40.1299Z" fill="#9797F7"/>
<path d="M270.974 29.7802C264.047 38.9849 250.966 40.8352 241.756 33.9187C239.914 32.5325 238.363 30.9038 237.121 29.1051C235.232 22.7813 236.267 15.6735 240.543 9.99356C247.697 0.494376 261.204 -1.41979 270.715 5.72338C271.417 6.25099 272.079 6.81098 272.694 7.40208C276.407 14.3339 276.017 23.0816 270.974 29.7802Z" fill="#B2B0F7"/>
<path d="M272.695 7.40215C280.455 14.8348 281.607 27.059 274.982 35.8608C267.829 45.3596 254.322 47.2737 244.811 40.1306C240.988 37.2578 238.392 33.3597 237.122 29.1056C235.232 22.7816 236.268 15.6738 240.544 9.99391C247.698 0.494782 261.205 -1.41908 270.716 5.72406C271.417 6.25166 272.079 6.81105 272.695 7.40215Z" stroke="#112C41" stroke-width="1.222" stroke-linecap="round" stroke-linejoin="round"/>
<mask id="mask1_26_110" style="mask-type:alpha" maskUnits="userSpaceOnUse" x="83" y="142" width="94" height="92">
<path d="M175.267 188.873C173.972 189.833 156.295 251.546 146.692 221.705C142.277 219.673 145.5 246.787 88.7489 223.128C79.6638 219.341 86.7853 165.729 84.2501 161.184C82.7905 158.567 109.264 144.089 109.998 143.363C110.771 142.598 112.791 143.211 115.603 144.876C120.116 147.548 126.665 152.937 133.386 159.726C134.5 160.852 135.575 161.972 136.604 163.078C136.61 163.084 136.615 163.091 136.618 163.094C143.042 169.996 173.727 185.117 175.267 188.873Z" fill="#112C41"/>
<path d="M175.267 188.873C173.972 189.833 156.295 251.546 146.692 221.705C142.277 219.673 145.5 246.787 88.7489 223.128C79.6638 219.341 86.7853 165.729 84.2501 161.184C82.7905 158.567 109.264 144.089 109.998 143.363C110.771 142.598 112.791 143.211 115.603 144.876C120.116 147.548 126.665 152.937 133.386 159.726C134.5 160.852 135.575 161.972 136.604 163.078C136.61 163.084 136.615 163.091 136.618 163.094C143.042 169.996 173.727 185.117 175.267 188.873Z" stroke="#112C41" stroke-width="1.222" stroke-miterlimit="10"/>
</mask>
<g mask="url(#mask1_26_110)">
<path d="M110.746 223.212C82.5854 208.736 97.9933 163.095 113.535 148.652C123.115 138.47 130.326 133.921 135.428 137.959C140.926 142.312 152.798 148.073 151.433 160.354C151.258 161.925 146.795 171.492 146.801 171.489C146.801 171.489 115.932 222.594 145.912 212.192" fill="#FFD6C0"/>
</g>
<path d="M110.749 223.205C143.634 241.52 198.878 186.07 197.085 139.594C196.6 125.757 190.982 109.393 187.656 101.377C186.856 99.4904 185.984 96.734 185.7 96.0531C184.814 93.7241 180.901 90.2994 167.566 91.5862C153.868 92.9084 152.992 94.3738 152.992 94.3738C153.551 95.7085 153.806 101.825 154.317 103.349C158.926 117.418 160.639 140.697 137.332 166.654C137.332 166.654 126.962 178.61 114.373 184.387" fill="#FFD6C0"/>
<path d="M110.748 223.209C105.009 220.015 101.094 216.765 98.2288 210.952C99.7703 212.626 101.581 214.159 103.686 215.528C135.093 235.935 194.551 184.488 196.028 138.477C196.17 134.043 195.978 130.171 195.53 126.742C196.345 130.418 196.894 134.643 197.085 139.59C198.877 186.069 143.632 241.52 110.748 223.209Z" fill="#F5B9AB"/>
<mask id="mask2_26_110" style="mask-type:alpha" maskUnits="userSpaceOnUse" x="83" y="142" width="94" height="92">
<path d="M175.267 188.873C173.972 189.833 156.295 251.546 146.692 221.705C142.277 219.673 145.5 246.787 88.7489 223.128C79.6638 219.341 86.7853 165.729 84.2501 161.184C82.7905 158.567 109.264 144.089 109.998 143.363C110.771 142.598 112.791 143.211 115.603 144.876C120.116 147.548 126.665 152.937 133.386 159.726C134.5 160.852 135.575 161.972 136.604 163.078C136.61 163.084 136.615 163.091 136.618 163.094C143.042 169.996 173.727 185.117 175.267 188.873Z" fill="#112C41"/>
<path d="M175.267 188.873C173.972 189.833 156.295 251.546 146.692 221.705C142.277 219.673 145.5 246.787 88.7489 223.128C79.6638 219.341 86.7853 165.729 84.2501 161.184C82.7905 158.567 109.264 144.089 109.998 143.363C110.771 142.598 112.791 143.211 115.603 144.876C120.116 147.548 126.665 152.937 133.386 159.726C134.5 160.852 135.575 161.972 136.604 163.078C136.61 163.084 136.615 163.091 136.618 163.094C143.042 169.996 173.727 185.117 175.267 188.873Z" stroke="#112C41" stroke-width="1.222" stroke-miterlimit="10"/>
</mask>
<g mask="url(#mask2_26_110)">
<path d="M110.746 223.212C82.5852 208.735 97.9925 163.093 113.535 148.652C123.114 138.47 130.327 133.921 135.428 137.96" stroke="#112C41" stroke-width="1.222" stroke-linecap="round" stroke-linejoin="round"/>
</g>
<path d="M110.749 223.209C143.631 241.52 198.874 186.07 197.083 139.593C196.597 125.754 190.983 109.39 187.655 101.373C186.856 99.4873 185.985 96.7306 185.702 96.0512C184.815 93.7223 180.902 90.2964 167.568 91.5845C153.871 92.9077 152.994 94.373 152.994 94.373C153.556 95.7066 153.808 101.823 154.319 103.349C158.927 117.418 160.64 140.696 137.333 166.656C137.333 166.656 126.962 178.61 114.375 184.39" stroke="#112C41" stroke-width="1.222" stroke-linecap="round" stroke-linejoin="round"/>
<path d="M197.21 142.023C200.173 144.069 201.472 145.753 201.031 147.037C199.986 150.081 188.122 148.827 174.532 144.236C160.942 139.645 151.775 133.706 152.819 130.662C153.13 129.757 154.398 129.232 156.383 129.061" stroke="#112C41" stroke-width="1.222" stroke-linecap="round" stroke-linejoin="round"/>
<path d="M194.665 159.5C197.009 161.973 198.069 164.02 197.401 165.248C195.707 168.359 183.56 165.03 170.27 157.814C156.98 150.597 147.579 142.225 149.273 139.114C149.816 138.116 151.437 137.78 153.827 138.024" stroke="#112C41" stroke-width="1.222" stroke-linecap="round" stroke-linejoin="round"/>
<path d="M154.029 102.089C150.753 90.232 151.337 91.0779 150.533 87.9123C149.729 84.7465 151.158 77.4054 154.989 77.4783C160.481 77.5844 161.78 85.6622 163.224 93.1581" fill="#FFD6C0"/>
<path d="M154.029 102.089C150.753 90.232 151.337 91.0779 150.533 87.9123C149.729 84.7465 151.158 77.4054 154.989 77.4783C160.481 77.5844 161.78 85.6622 163.224 93.1581" stroke="#112C41" stroke-width="1.222" stroke-linecap="round" stroke-linejoin="round"/>
<path d="M160.986 95.7075C160.986 95.7075 157.775 87.4769 160.423 80.6332C163.072 73.7897 167.814 72.7487 169.739 73.5836C171.664 74.4186 172.557 76.4911 172.295 86.1303C172.295 86.1303 171.253 89.8242 173.029 92.7014" fill="#FFD6C0"/>
<path d="M160.986 95.7075C160.986 95.7075 157.775 87.4769 160.423 80.6332C163.072 73.7897 167.814 72.7487 169.739 73.5836C171.664 74.4186 172.557 76.4911 172.295 86.1303C172.295 86.1303 171.253 89.8242 173.029 92.7014" stroke="#112C41" stroke-width="1.222" stroke-linecap="round" stroke-linejoin="round"/>
<path d="M171.566 95.0336C168.838 88.3283 171.308 82.4484 173.892 78.4573C173.892 78.4573 176.325 75.0824 179.585 76.3037C183.107 77.6229 183.056 84.2245 183.739 88.912C184.1 91.3837 184.347 92.6535 186.133 97.0568" fill="#FFD6C0"/>
<path d="M171.566 95.0336C168.838 88.3283 171.308 82.4484 173.892 78.4573C173.892 78.4573 176.325 75.0824 179.585 76.3037C183.107 77.6229 183.056 84.2245 183.739 88.912C184.1 91.3837 184.347 92.6535 186.133 97.0568" stroke="#112C41" stroke-width="1.222" stroke-linecap="round" stroke-linejoin="round"/>
<path d="M198.298 191.173C204.944 196.745 208.353 203.618 205.913 206.523C203.472 209.429 196.106 207.267 189.46 201.695C182.814 196.123 179.405 189.251 181.845 186.345C184.286 183.44 191.652 185.601 198.298 191.173Z" fill="#FFD6C0"/>
<path d="M198.298 191.173C204.944 196.745 208.353 203.618 205.913 206.523C203.472 209.429 196.106 207.267 189.46 201.695C182.814 196.123 179.405 189.251 181.845 186.345C184.286 183.44 191.652 185.601 198.298 191.173Z" stroke="#112C41" stroke-width="1.17923" stroke-linecap="round" stroke-linejoin="round"/>
<mask id="mask3_26_110" style="mask-type:alpha" maskUnits="userSpaceOnUse" x="125" y="158" width="235" height="134">
<path d="M359.205 171.188C356.451 175.462 321.379 283.399 313.359 290.043C305.781 296.322 138.475 272.34 133.723 274.467C133.515 273.456 106.983 178.976 157.555 168.191C204.52 158.175 262.12 190.411 261.274 189.895C261.262 189.886 261.257 189.882 261.257 189.882C264.299 185.619 270.271 179.525 277.677 173.388C285.531 166.879 293.039 161.945 297.773 159.945L297.776 159.945C300.242 158.904 301.954 158.658 302.572 159.402C303.165 160.115 360.553 169.096 359.205 171.188Z" fill="#112C41"/>
<path d="M359.205 171.188C356.451 175.462 321.379 283.399 313.359 290.043C305.781 296.322 138.475 272.34 133.723 274.467C133.515 273.456 106.983 178.976 157.555 168.191C204.52 158.175 262.12 190.411 261.274 189.895C261.262 189.886 261.257 189.882 261.257 189.882C264.299 185.619 270.271 179.525 277.677 173.388C285.531 166.879 293.039 161.945 297.773 159.945L297.776 159.945C300.242 158.904 301.954 158.658 302.572 159.402C303.165 160.115 360.553 169.096 359.205 171.188Z" stroke="#112C41" stroke-width="1.222" stroke-miterlimit="10"/>
</mask>
<g mask="url(#mask3_26_110)">
<path d="M260.567 189.177C260.891 189.376 265.185 196.125 263.642 200.657C261.213 207.783 243.717 202.741 203.952 193.898C199.893 192.996 196.096 192.432 192.561 192.147C192.561 192.147 174.534 197.476 175.099 211.221C175.661 224.963 197.217 232.499 197.217 232.499C203.479 234.486 210.267 237.527 218.052 240.315C222.297 241.838 226.841 243.284 231.756 244.439C288.383 257.762 340.693 221.656 307.237 174.06C304.9 170.735 302.146 167.382 298.947 164.015C297.782 162.789 295.207 160.396 295.207 160.396C295.207 160.396 270.002 139.352 256.087 152.373C242.171 165.39 260.555 189.168 260.567 189.177Z" fill="#FFD6C0"/>
<path d="M231.755 244.438C226.84 243.283 222.297 241.837 218.051 240.314C223.058 241.478 228.44 242.538 234.267 243.15C287.57 248.732 331.649 214.439 307.532 174.472C339.746 222.537 288.382 257.762 231.755 244.438Z" fill="#F5B9AB"/>
<path d="M260.568 189.176C260.892 189.375 265.185 196.125 263.642 200.656C261.213 207.783 243.718 202.742 203.951 193.898C199.894 192.996 196.095 192.431 192.561 192.146C192.561 192.146 174.533 197.476 175.097 211.22C175.661 224.964 197.218 232.5 197.218 232.5C203.479 234.485 210.266 237.528 218.05 240.315C222.296 241.838 226.84 243.284 231.755 244.439C288.382 257.763 340.692 221.655 307.236 174.06C304.899 170.734 302.145 167.382 298.946 164.015C297.78 162.789 295.205 160.395 295.205 160.395C295.205 160.395 270.002 139.353 256.086 152.371C242.17 165.39 260.556 189.167 260.568 189.176Z" stroke="#112C41" stroke-width="1.22199" stroke-linecap="round" stroke-linejoin="round"/>
</g>
<path d="M176.668 208.663C176.668 208.663 164.287 216.79 160.471 212.779C155.654 207.714 164.653 199.946 169.763 197.013C173.384 194.937 180.007 191.473 192.562 192.147C192.562 192.147 197.307 192.561 200.456 193.192" fill="#FFD6C0"/>
<path d="M176.668 208.663C176.668 208.663 164.287 216.79 160.471 212.779C155.654 207.714 164.653 199.946 169.763 197.013C173.384 194.937 180.007 191.473 192.562 192.147C192.562 192.147 197.307 192.561 200.456 193.192" stroke="#112C41" stroke-width="1.222" stroke-linecap="round" stroke-linejoin="round"/>
<path d="M180.006 202.667C163.358 206.951 159.175 218.89 164 223.371C164 223.371 168.815 226.601 178.071 220.597" fill="#FFD6C0"/>
<path d="M180.006 202.667C163.358 206.951 159.175 218.89 164 223.371C164 223.371 168.815 226.601 178.071 220.597" stroke="#112C41" stroke-width="1.222" stroke-linecap="round" stroke-linejoin="round"/>
<path d="M182.892 214.461C173.282 215.59 164.488 222.653 167.166 228.24C167.166 228.24 168.828 232.965 180.585 230.684C189.149 229.018 198.93 233.063 198.93 233.063" fill="#FFD6C0"/>
<path d="M182.892 214.461C173.282 215.59 164.488 222.653 167.166 228.24C167.166 228.24 168.828 232.965 180.585 230.684C189.149 229.018 198.93 233.063 198.93 233.063" stroke="#112C41" stroke-width="1.222" stroke-linecap="round" stroke-linejoin="round"/>
<path d="M114.224 233.307C114.224 238.686 89.8169 243.046 59.7099 243.046C29.6029 243.046 5.19611 238.686 5.19611 233.307C5.19611 227.928 29.6029 223.568 59.7099 223.568C89.8169 223.568 114.224 227.928 114.224 233.307Z" fill="#CBC8FF"/>
<path d="M40.0755 177.396C82.9718 146.052 75.0598 122.594 74.7386 121.87L3.62531 121.864C3.37555 122.514 -4.69111 146.049 38.2023 177.396C38.4431 177.574 38.4431 177.939 38.2023 178.117C-4.69111 209.461 3.37555 232.999 3.62531 233.647H3.62829C3.88102 234.389 74.4889 234.383 74.7386 233.644H74.7416C75.0627 232.919 82.9688 209.461 40.0755 178.117C39.8316 177.939 39.8316 177.574 40.0755 177.396Z" fill="white"/>
<path d="M37.6946 236.749L38.465 202.148L39.0954 172.969C39.1257 172.683 39.4254 172.692 39.4611 172.969L40.0206 202.134L40.7664 236.673" fill="#FFE993"/>
<mask id="mask4_26_110" style="mask-type:alpha" maskUnits="userSpaceOnUse" x="37" y="172" width="4" height="65">
<path d="M37.6946 236.749L38.465 202.148L39.0954 172.969C39.1257 172.683 39.4254 172.692 39.4611 172.969L40.0206 202.134L40.7664 236.673" fill="#FFE993"/>
</mask>
<g mask="url(#mask4_26_110)">
<path d="M41.8411 171.203C39.7507 171.119 37.2483 174.983 37.2483 174.983L39.3748 175.441L40.8377 237.42L47.5269 236.668C47.5269 236.668 43.3869 171.264 41.8411 171.203Z" fill="#FFD169"/>
</g>
<path d="M40.1593 177.401C83.0545 146.055 75.0612 122.595 74.7395 121.87L3.62441 121.865C3.37644 122.514 -4.60757 146.053 38.2849 177.401C38.5284 177.579 38.5284 177.942 38.2849 178.12C-4.60757 209.466 3.37644 232.998 3.62441 233.647H3.62739C3.88012 234.389 74.488 234.383 74.7377 233.644H74.7407C75.0624 232.918 83.0533 209.465 40.1593 178.12C39.9158 177.943 39.9158 177.579 40.1593 177.401Z" stroke="#112C41" stroke-width="1.22199" stroke-linecap="round" stroke-linejoin="round"/>
<path d="M15.9863 149.78C21.4555 161.789 34.5591 170.123 38.3972 173.605C38.8351 173.978 39.4844 173.992 39.9115 173.605C43.772 170.118 56.8949 161.766 62.3775 149.754L15.9863 149.78Z" fill="#FFE993"/>
<mask id="mask5_26_110" style="mask-type:alpha" maskUnits="userSpaceOnUse" x="15" y="149" width="48" height="25">
<path d="M15.9863 149.78C21.4555 161.789 34.5591 170.123 38.3972 173.605C38.8351 173.978 39.4844 173.992 39.9115 173.605C43.772 170.118 56.8949 161.766 62.3775 149.754L15.9863 149.78Z" fill="#FFE993"/>
</mask>
<g mask="url(#mask5_26_110)">
<path d="M68.1606 142.051C66.0058 156.758 45.3046 169.563 40.1102 174.355C39.7712 174.667 38.8298 173.876 38.4344 173.695C38.7347 173.68 39.0026 173.522 39.2342 173.297C54.3001 158.699 60.2367 148.157 60.9539 142.636L68.1606 142.051Z" fill="#FFD169"/>
</g>
<path d="M62.3017 149.691C62.3017 151.325 51.955 152.649 39.192 152.649C26.429 152.649 16.0825 151.325 16.0825 149.691C16.0825 148.057 26.429 146.732 39.192 146.732C51.955 146.732 62.3017 148.057 62.3017 149.691Z" fill="#FFD169"/>
<path d="M72.5552 233.817C72.0655 231.909 47.766 231.832 41.1105 231.31C40.5322 231.265 38.7342 231.276 38.1541 231.289C30.019 231.477 6.50315 231.462 6.01248 233.277L72.5552 233.817Z" fill="#FFE993"/>
<mask id="mask6_26_110" style="mask-type:alpha" maskUnits="userSpaceOnUse" x="6" y="231" width="67" height="3">
<path d="M72.5552 233.817C72.0655 231.909 47.766 231.832 41.1105 231.31C40.5322 231.265 38.7342 231.276 38.1541 231.29C30.0191 231.477 6.50318 231.462 6.01251 233.277L72.5552 233.817Z" fill="#FFE993"/>
</mask>
<g mask="url(#mask6_26_110)">
<path d="M62.1597 227.317L40.5035 227.651C40.5035 227.651 39.2493 229.237 41.8413 229.905C64.919 232.911 64.919 231.492 68.598 235.166C75.8705 242.428 75.6217 230.74 75.6217 230.74L62.1597 227.317Z" fill="#FFD169"/>
</g>
<path d="M74.8224 122.366C74.8224 126.341 58.8675 129.563 39.181 129.563C19.4975 129.563 3.53958 126.341 3.53958 122.366C3.53958 118.393 19.4975 115.171 39.181 115.171C58.8675 115.171 74.8224 118.393 74.8224 122.366Z" fill="#DEDFFE"/>
<path d="M74.8836 122.608C74.8836 124.205 72.306 125.681 67.9477 126.874C67.4663 127.005 66.9632 127.134 66.4393 127.258C67.6203 126.52 68.0758 125.515 68.0758 124.625C68.0758 119.883 49.7648 116.088 26.5163 115.886C30.4679 115.58 34.7584 115.414 39.2422 115.414C58.9257 115.414 74.8836 118.635 74.8836 122.608Z" fill="#B2B0F7"/>
<path d="M75.2455 122.367C75.2455 126.341 59.1933 129.563 39.3927 129.563C19.5917 129.563 3.53986 126.341 3.53986 122.367C3.53986 118.393 19.5917 115.171 39.3927 115.171C59.1933 115.171 75.2455 118.393 75.2455 122.367Z" stroke="#112C41" stroke-width="1.22199" stroke-linecap="round" stroke-linejoin="round"/>
<path d="M3.33593 122.731L3.1687 131.999C3.1687 131.999 7.89327 138.22 39.2488 138.22C70.6043 138.22 75.2867 131.54 75.2867 131.54V122.689C75.2867 122.689 70.8551 129.703 39.416 129.703C7.97688 129.703 3.33593 122.731 3.33593 122.731Z" fill="#DEDFFE"/>
<mask id="mask7_26_110" style="mask-type:alpha" maskUnits="userSpaceOnUse" x="3" y="122" width="73" height="17">
<path d="M3.33593 122.731L3.1687 131.999C3.1687 131.999 7.89327 138.22 39.2488 138.22C70.6043 138.22 75.2867 131.54 75.2867 131.54V122.689C75.2867 122.689 70.8551 129.703 39.416 129.703C7.97688 129.703 3.33593 122.731 3.33593 122.731Z" fill="#DEDFFE"/>
</mask>
<g mask="url(#mask7_26_110)">
<path d="M75.4222 130.961C75.0862 132.692 72.0813 134.281 66.8066 135.522C67.0683 135.213 67.2318 134.899 67.2942 134.578C67.7429 130.9 67.3995 128.228 67.0837 126.773C70.688 126.154 73.9072 123.628 75.1861 123.182C75.5066 124.609 75.8809 127.182 75.4222 130.961Z" fill="#B2B0F7"/>
</g>
<path d="M3.33594 122.731C3.33594 122.731 2.84095 123.691 2.8376 127.031C2.83425 130.309 3.37809 131.999 3.37809 131.999C3.37809 131.999 7.89328 138.22 39.2488 138.22C70.6043 138.22 75.2031 131.54 75.2031 131.54C75.2031 131.54 75.8185 130.141 75.7871 127.427C75.7463 123.921 75.3496 122.313 75.3496 122.313C75.3496 122.313 70.8551 129.703 39.416 129.703C7.97689 129.703 3.33594 122.731 3.33594 122.731Z" stroke="#112C41" stroke-width="1.37457" stroke-linecap="round"/>
<path d="M3.67578 233.234C3.67578 233.285 19.6307 233.329 39.3172 233.329C59.0007 233.329 74.9586 233.285 74.9586 233.234C74.9586 233.181 59.0007 233.139 39.3172 233.139C19.6307 233.139 3.67578 233.181 3.67578 233.234Z" fill="#DEDFFE"/>
<path d="M3.67432 233.233C3.67432 233.286 19.6319 233.328 39.3163 233.328C59.001 233.328 74.9583 233.286 74.9583 233.233C74.9583 233.181 59.001 233.138 39.3163 233.138C19.6319 233.138 3.67432 233.181 3.67432 233.233Z" stroke="#112C41" stroke-width="1.22199" stroke-linecap="round" stroke-linejoin="round"/>
<path d="M75.1623 233.621L75.3295 224.351C75.3295 224.351 70.6049 231.992 39.2494 231.992C7.89392 231.992 3.2115 224.811 3.2115 224.811V233.662C3.2115 233.662 7.64308 240.509 39.0822 240.509C70.5213 240.509 75.1623 233.621 75.1623 233.621Z" fill="#DEDFFE"/>
<mask id="mask8_26_110" style="mask-type:alpha" maskUnits="userSpaceOnUse" x="3" y="224" width="73" height="17">
<path d="M75.1622 233.621L75.3295 224.351C75.3295 224.351 70.6049 231.992 39.2494 231.992C7.89389 231.992 3.21147 224.811 3.21147 224.811V233.662C3.21147 233.662 7.64305 240.509 39.0822 240.509C70.5213 240.509 75.1622 233.621 75.1622 233.621Z" fill="#DEDFFE"/>
</mask>
<g mask="url(#mask8_26_110)">
<path d="M75.1795 233.221C74.7454 234.506 72.6432 235.697 69.3012 236.709C68.3527 236.997 67.3031 237.271 66.1613 237.526C66.8749 237.033 67.3358 236.519 67.5142 235.991C67.6183 235.756 68.2804 232.764 68.0366 228.402C68.7919 228.209 69.4921 228.139 70.1087 227.835C72.8624 226.481 73.9494 225.312 75.5113 224.296C76.0465 229.498 75.2954 232.965 75.1795 233.221Z" fill="#B2B0F7"/>
</g>
<path d="M75.1623 233.621C75.1623 233.621 75.5496 232.599 75.5496 229.11C75.5496 226.795 75.2452 224.478 75.2452 224.478C75.2452 224.478 70.6049 231.993 39.2494 231.993C7.89392 231.993 3.21149 224.812 3.21149 224.812C3.21149 224.812 2.83489 226.155 2.83489 228.866C2.83489 232.872 3.21149 233.663 3.21149 233.663C3.21149 233.663 7.64307 240.51 39.0822 240.51C70.5213 240.51 75.1623 233.621 75.1623 233.621Z" stroke="#112C41" stroke-width="1.37457" stroke-linecap="round"/>
</g>
</g>
<defs>
<clipPath id="clip0_26_110">
<rect width="346" height="248" fill="white"/>
</clipPath>
</defs>
</svg>
