<svg width="572" height="429" viewBox="0 0 572 429" fill="none" xmlns="http://www.w3.org/2000/svg">
<g clip-path="url(#clip0_28_447)">
<mask id="mask0_28_447" style="mask-type:luminance" maskUnits="userSpaceOnUse" x="-97" y="-182" width="800" height="800">
<path d="M703 -182H-97V618H703V-182Z" fill="white"/>
</mask>
<g mask="url(#mask0_28_447)">
<mask id="mask1_28_447" style="mask-type:luminance" maskUnits="userSpaceOnUse" x="-97" y="-182" width="800" height="800">
<path d="M-97 -182H703V618H-97V-182Z" fill="white"/>
</mask>
<g mask="url(#mask1_28_447)">
<path d="M480.249 414.443C480.249 422.495 430.763 429.022 369.719 429.022C308.675 429.022 259.189 422.495 259.189 414.443C259.189 406.391 308.675 399.864 369.719 399.864C430.763 399.864 480.249 406.391 480.249 414.443Z" fill="#CDCAFF"/>
<mask id="mask2_28_447" style="mask-type:luminance" maskUnits="userSpaceOnUse" x="-97" y="-182" width="800" height="800">
<path d="M-97 -182H703V618H-97V-182Z" fill="white"/>
</mask>
<g mask="url(#mask2_28_447)">
<path d="M241.931 16.6041L213.873 42.7358" stroke="#1D374A" stroke-width="0.889" stroke-linecap="round" stroke-linejoin="round"/>
<path d="M251.272 19.5381C251.272 26.4954 245.632 32.1352 238.675 32.1352C231.717 32.1352 226.077 26.4954 226.077 19.5381C226.077 12.5808 231.717 6.94095 238.675 6.94095C245.632 6.94095 251.272 12.5808 251.272 19.5381Z" fill="#CDCAFF"/>
<path d="M251.272 19.5381C251.272 26.4954 245.632 32.1352 238.675 32.1352C231.717 32.1352 226.077 26.4954 226.077 19.5381C226.077 12.5808 231.717 6.94095 238.675 6.94095C245.632 6.94095 251.272 12.5808 251.272 19.5381Z" stroke="#1D374A" stroke-width="0.889" stroke-linecap="round" stroke-linejoin="round"/>
<path d="M248.405 27.5413C246.093 30.3465 242.594 32.1352 238.675 32.1352C231.716 32.1352 226.076 26.4954 226.076 19.5363C226.076 14.5219 229.003 10.1969 233.245 8.16864C231.452 10.3436 230.376 13.1293 230.376 16.1692C230.376 23.1283 236.016 28.7681 242.975 28.7681C244.92 28.7681 246.763 28.328 248.405 27.5413Z" fill="#B6B4F7"/>
<path d="M251.272 19.5381C251.272 26.4954 245.632 32.1352 238.675 32.1352C231.717 32.1352 226.077 26.4954 226.077 19.5381C226.077 12.5808 231.717 6.94095 238.675 6.94095C245.632 6.94095 251.272 12.5808 251.272 19.5381Z" stroke="#1D374A" stroke-width="0.889" stroke-linecap="round" stroke-linejoin="round"/>
<path d="M230.04 15.0852L196.186 47.0288" stroke="#1D374A" stroke-width="0.889" stroke-linecap="round" stroke-linejoin="round"/>
<path d="M242.937 27.2715L209.083 59.2151" stroke="#1D374A" stroke-width="0.889" stroke-linecap="round" stroke-linejoin="round"/>
</g>
<path d="M151.32 354.989C151.32 363.024 144.806 369.538 136.772 369.538C128.737 369.538 122.224 363.024 122.224 354.989C122.224 346.955 128.737 340.441 136.772 340.441C144.806 340.441 151.32 346.955 151.32 354.989Z" fill="#FFADDD"/>
<path d="M151.32 354.989C151.32 363.024 144.806 369.538 136.772 369.538C128.737 369.538 122.224 363.024 122.224 354.989C122.224 346.955 128.737 340.441 136.772 340.441C144.806 340.441 151.32 346.955 151.32 354.989Z" stroke="#1D374A" stroke-width="0.889" stroke-linecap="round" stroke-linejoin="round"/>
<path d="M148.409 363.719C145.754 367.251 141.529 369.538 136.77 369.538C128.739 369.538 122.222 363.022 122.222 354.99C122.222 349.826 124.911 345.293 128.964 342.713C127.14 345.143 126.059 348.165 126.059 351.438C126.059 359.469 132.575 365.986 140.607 365.986C143.479 365.986 146.154 365.155 148.409 363.719Z" fill="#FF95DA"/>
<path d="M151.32 354.989C151.32 363.024 144.806 369.538 136.772 369.538C128.737 369.538 122.224 363.024 122.224 354.989C122.224 346.955 128.737 340.441 136.772 340.441C144.806 340.441 151.32 346.955 151.32 354.989Z" stroke="#1D374A" stroke-width="0.889" stroke-linecap="round" stroke-linejoin="round"/>
<mask id="mask3_28_447" style="mask-type:luminance" maskUnits="userSpaceOnUse" x="-97" y="-182" width="800" height="800">
<path d="M-97 -182H703V618H-97V-182Z" fill="white"/>
</mask>
<g mask="url(#mask3_28_447)">
<path d="M566.306 302.694C566.306 321.62 550.964 336.967 532.033 336.967C527.738 336.967 523.627 336.179 519.84 334.733C517.929 334.007 516.1 333.113 514.374 332.067C513.368 331.463 512.395 330.805 511.458 330.099C510.03 329.03 508.69 327.851 507.452 326.573C501.45 320.402 497.759 311.975 497.759 302.694C497.759 283.763 513.107 268.421 532.033 268.421C536.391 268.421 540.556 269.233 544.391 270.713C545.794 271.255 547.152 271.889 548.459 272.604C554.761 276.053 559.859 281.417 562.969 287.922C563.753 289.557 564.405 291.265 564.923 293.031C565.223 294.056 565.479 295.1 565.687 296.169C566.074 298.181 566.287 300.256 566.301 302.38C566.306 302.486 566.306 302.587 566.306 302.694Z" fill="#CDCAFF"/>
<path d="M558.093 324.953C551.81 332.305 542.465 336.967 532.033 336.967C513.106 336.967 497.759 321.62 497.759 302.694C497.759 290.646 503.974 280.053 513.372 273.94C508.26 279.932 505.169 287.7 505.169 296.194C505.169 315.12 520.516 330.466 539.442 330.466C546.32 330.466 552.729 328.44 558.093 324.953Z" fill="#B6B4F7"/>
<path d="M566.306 302.694C566.306 321.622 550.961 336.967 532.033 336.967C513.104 336.967 497.76 321.622 497.76 302.694C497.76 283.765 513.104 268.421 532.033 268.421C550.961 268.421 566.306 283.765 566.306 302.694Z" stroke="#1D374A" stroke-width="0.967354" stroke-linecap="round" stroke-linejoin="round"/>
<mask id="mask4_28_447" style="mask-type:alpha" maskUnits="userSpaceOnUse" x="505" y="284" width="61" height="52">
<path d="M565.28 302.694C565.28 321.054 550.397 335.942 532.033 335.942C527.867 335.942 523.881 335.17 520.204 333.774C518.35 333.07 516.58 332.197 514.902 331.189C513.927 330.602 512.985 329.961 512.073 329.279C510.689 328.242 509.391 327.096 508.188 325.858C507.36 325.008 506.587 324.105 505.845 323.177C505.25 322.434 538.349 311.06 560.108 284.877C560.955 283.857 561.466 287.16 562.043 288.365C562.804 289.951 563.438 291.606 563.939 293.32C564.23 294.314 564.481 295.327 564.68 296.365C565.056 298.316 565.262 300.329 565.276 302.389C565.281 302.492 565.28 302.591 565.28 302.694Z" fill="#CDCAFF"/>
</mask>
<g mask="url(#mask4_28_447)">
<path d="M504.694 316.214C490.151 330.467 482.319 343.048 486.019 347.942C489.715 352.836 503.959 348.735 521.639 338.628C529.034 334.401 537.027 329.13 545.105 323.023C553.183 316.916 560.441 310.661 566.522 304.699C581.066 290.447 588.898 277.866 585.198 272.972C581.962 268.686 570.641 271.298 556.006 278.796C552.25 280.72 548.635 282.917 545.162 285.315C512.544 307.837 504.694 316.214 504.694 316.214ZM548.553 286.935C552.602 284.241 556.884 281.9 561.373 280.029C569.271 276.736 574.992 275.947 576.858 278.412C579.316 281.66 574.509 289.813 565.137 299.636C559.189 305.866 551.402 312.775 542.465 319.531C533.536 326.282 524.769 331.887 517.151 335.908C505.143 342.252 495.987 344.656 493.528 341.403C491.04 338.112 495.995 329.805 505.585 319.824C505.585 319.824 518.088 307.202 548.553 286.935Z" fill="#B5B4F7"/>
</g>
<mask id="mask5_28_447" style="mask-type:alpha" maskUnits="userSpaceOnUse" x="497" y="267" width="62" height="54">
<path d="M531.985 268.189C513.059 268.189 497.712 283.531 497.712 302.462C497.712 307.884 498.971 313.013 501.214 317.572C501.535 318.223 501.874 318.85 502.22 319.446C504.295 323.021 557.867 280.186 557.867 280.186C557.867 280.186 558.163 280.402 558.05 280.204C555.433 276.975 552.084 274.384 548.41 272.373C547.105 271.657 545.745 271.023 544.343 270.482C540.507 269.002 536.343 268.189 531.985 268.189Z" fill="#CBC8FF"/>
<path d="M531.985 268.189C513.059 268.189 497.712 283.531 497.712 302.462C497.712 307.884 498.971 313.013 501.214 317.572C501.535 318.223 501.874 318.85 502.22 319.446C504.295 323.021 557.867 280.186 557.867 280.186C557.867 280.186 558.163 280.402 558.05 280.204C555.433 276.975 552.084 274.384 548.41 272.373C547.105 271.657 545.745 271.023 544.343 270.482C540.507 269.002 536.343 268.189 531.985 268.189Z" stroke="#112C41" stroke-width="0.967354" stroke-linecap="round" stroke-linejoin="round"/>
</mask>
<g mask="url(#mask5_28_447)">
<path d="M502.531 312.824C487.987 327.077 480.155 339.658 483.855 344.552C487.551 349.446 501.795 345.345 519.475 335.238C526.87 331.011 534.863 325.74 542.941 319.634C551.02 313.527 558.277 307.272 564.359 301.31C578.902 287.057 586.734 274.476 583.034 269.582C579.798 265.297 568.478 267.908 553.842 275.406C550.086 277.331 546.472 279.527 542.999 281.925C510.381 304.447 502.531 312.824 502.531 312.824ZM546.39 283.545C550.439 280.852 554.721 278.511 559.209 276.639C567.108 273.346 572.829 272.558 574.694 275.023C577.153 278.271 572.346 286.423 562.974 296.246C557.026 302.477 549.239 309.386 540.301 316.142C531.372 322.893 522.606 328.498 514.987 332.518C502.98 338.862 493.823 341.266 491.364 338.013C488.877 334.722 493.831 326.415 503.422 316.435C503.422 316.435 515.924 303.813 546.39 283.545Z" fill="white"/>
<path d="M502.531 312.824C487.987 327.077 480.155 339.658 483.855 344.552C487.551 349.446 501.795 345.345 519.475 335.238C526.87 331.011 534.863 325.74 542.941 319.634C551.02 313.527 558.277 307.272 564.359 301.31C578.902 287.057 586.734 274.476 583.034 269.582C579.798 265.297 568.478 267.908 553.842 275.406C550.086 277.331 546.472 279.527 542.999 281.925C510.381 304.447 502.531 312.824 502.531 312.824ZM546.39 283.545C550.439 280.852 554.721 278.511 559.209 276.639C567.108 273.346 572.829 272.558 574.694 275.023C577.153 278.271 572.346 286.423 562.974 296.246C557.026 302.477 549.239 309.386 540.301 316.142C531.372 322.893 522.606 328.498 514.987 332.518C502.98 338.862 493.823 341.266 491.364 338.013C488.877 334.722 493.831 326.415 503.422 316.435C503.422 316.435 515.924 303.813 546.39 283.545Z" stroke="#112C41" stroke-width="0.887489" stroke-linecap="round" stroke-linejoin="round"/>
</g>
</g>
<path d="M548.885 208.171C548.885 214.158 544.032 219.01 538.046 219.01C532.06 219.01 527.207 214.158 527.207 208.171C527.207 202.185 532.06 197.333 538.046 197.333C544.032 197.333 548.885 202.185 548.885 208.171Z" fill="#FFEA98"/>
<path d="M548.885 208.171C548.885 214.158 544.032 219.01 538.046 219.01C532.06 219.01 527.207 214.158 527.207 208.171C527.207 202.185 532.06 197.333 538.046 197.333C544.032 197.333 548.885 202.185 548.885 208.171Z" stroke="#1D374A" stroke-width="0.889" stroke-linecap="round" stroke-linejoin="round"/>
<path d="M546.418 215.058C544.429 217.471 541.418 219.01 538.046 219.01C532.059 219.01 527.206 214.158 527.206 208.17C527.206 203.856 529.724 200.135 533.374 198.39C531.831 200.261 530.906 202.658 530.906 205.273C530.906 211.261 535.759 216.113 541.747 216.113C543.42 216.113 545.005 215.735 546.418 215.058Z" fill="#FFD370"/>
<path d="M548.885 208.171C548.885 214.158 544.032 219.01 538.046 219.01C532.06 219.01 527.207 214.158 527.207 208.171C527.207 202.185 532.06 197.333 538.046 197.333C544.032 197.333 548.885 202.185 548.885 208.171Z" stroke="#1D374A" stroke-width="0.889" stroke-linecap="round" stroke-linejoin="round"/>
<mask id="mask6_28_447" style="mask-type:luminance" maskUnits="userSpaceOnUse" x="-97" y="-182" width="800" height="800">
<path d="M-97 -182H703V618H-97V-182Z" fill="white"/>
</mask>
<g mask="url(#mask6_28_447)">
<path d="M132.887 97.148C151.386 101.247 163.06 119.566 158.96 138.065C154.861 156.564 136.542 168.238 118.043 164.138C99.5442 160.04 87.8704 141.72 91.9694 123.221C96.0686 104.722 114.388 93.0488 132.887 97.148Z" stroke="#75D1EB" stroke-width="2.2225" stroke-linecap="round" stroke-linejoin="round"/>
<path d="M100.732 154.428C115.66 145.814 123.837 128.14 119.652 110.507C118.582 106.001 116.788 101.849 114.423 98.1573" stroke="#75D1EB" stroke-width="2.2225" stroke-linecap="round" stroke-linejoin="round"/>
<path d="M133.463 97.4123C139.124 102.627 143.34 109.531 145.252 117.585C149.982 137.517 138.915 157.504 120.153 164.401" stroke="#75D1EB" stroke-width="2.2225" stroke-linecap="round" stroke-linejoin="round"/>
<mask id="mask7_28_447" style="mask-type:alpha" maskUnits="userSpaceOnUse" x="91" y="96" width="69" height="69">
<path d="M132.887 97.148C151.386 101.247 163.06 119.566 158.96 138.065C154.861 156.564 136.542 168.238 118.043 164.138C99.5441 160.04 87.8703 141.72 91.9694 123.221C96.0685 104.722 114.388 93.0488 132.887 97.148Z" fill="#FF0000"/>
</mask>
<g mask="url(#mask7_28_447)">
<path d="M92.4443 121.656C94.1726 114.056 105.908 101.286 132.173 108.063C154.686 113.872 161.106 131.817 158.972 139.488" stroke="#75D2EB" stroke-width="2.3274"/>
</g>
<mask id="mask8_28_447" style="mask-type:alpha" maskUnits="userSpaceOnUse" x="91" y="96" width="69" height="69">
<path d="M132.887 97.148C151.386 101.247 163.06 119.566 158.96 138.065C154.861 156.564 136.542 168.238 118.043 164.138C99.5441 160.04 87.8703 141.72 91.9694 123.221C96.0685 104.722 114.388 93.0488 132.887 97.148Z" fill="#FF0000"/>
</mask>
<g mask="url(#mask8_28_447)">
<path d="M92.3875 122.104C91.436 124.756 97.9003 132.152 124.136 139.042C146.623 144.947 158.458 142.179 159.063 139.373" stroke="#75D2EB" stroke-width="2.3274"/>
</g>
<mask id="mask9_28_447" style="mask-type:alpha" maskUnits="userSpaceOnUse" x="91" y="96" width="69" height="69">
<path d="M132.887 97.148C151.386 101.247 163.06 119.566 158.96 138.065C154.861 156.564 136.542 168.238 118.043 164.138C99.5441 160.04 87.8703 141.72 91.9694 123.221C96.0685 104.722 114.388 93.0488 132.887 97.148Z" fill="#FF0000"/>
</mask>
<g mask="url(#mask9_28_447)">
<path d="M92.344 122.447C89.3414 132.946 91.7711 155.778 117.984 162.753C140.452 168.732 156.431 150.111 159.132 139.285" stroke="#75D2EB" stroke-width="2.3274"/>
</g>
</g>
<path d="M387.43 249.729C387.43 249.729 371.934 248.911 370.592 239.007C368.641 224.668 380.251 196.904 383.891 186.067C386.821 177.377 395.995 184.645 407.663 188.668C407.663 188.668 439.498 202.705 446.099 182.831C452.7 162.953 436.24 134.136 419.158 120.632C404.472 109.027 405.734 88.824 419.727 78.7116C433.72 68.6037 452.18 73.9644 466.391 93.8157C480.601 113.667 517.815 164.571 504.467 207.012C490.976 249.897 444.077 264.508 388.225 250.031" fill="#FFD8C3"/>
<path d="M507.525 186.751C507.511 191.627 507.036 196.419 506.044 201.077C505.982 201.353 505.924 201.628 505.862 201.904C505.693 202.651 505.511 203.389 505.315 204.122C505.218 204.5 505.111 204.869 505.004 205.242C504.911 205.558 504.818 205.869 504.729 206.18C487.007 264.192 414.909 259.449 389.056 250.332C388.772 250.23 388.496 250.132 388.225 250.029C387.954 249.928 387.687 249.83 387.43 249.728C387.461 249.381 387.63 248.754 387.914 247.896C387.972 247.723 388.03 247.545 388.096 247.358C388.292 246.785 388.532 246.136 388.803 245.412C388.941 245.052 389.083 244.674 389.239 244.283V244.278C389.381 243.909 389.532 243.531 389.692 243.136C389.883 242.656 390.083 242.153 390.292 241.633C390.408 241.358 390.519 241.078 390.639 240.789C390.834 240.309 391.039 239.815 391.252 239.309C419.216 248.705 486.846 254.586 505.315 196.237C506.164 193.556 506.822 190.823 507.311 188.04C507.386 187.609 507.458 187.182 507.525 186.751Z" fill="#F5BCAF"/>
<path d="M387.43 249.728C387.43 249.728 371.936 248.911 370.59 239.006C368.64 224.666 380.249 196.902 383.894 186.069C386.818 177.376 395.995 184.644 407.664 188.669C407.664 188.669 439.497 202.706 446.098 182.83C452.699 162.953 436.239 134.135 419.158 120.634C404.473 109.028 405.732 88.8222 419.725 78.7129C433.719 68.6037 452.181 73.9661 466.392 93.8166C480.602 113.667 517.816 164.571 504.467 207.01C490.977 249.897 444.078 264.509 388.225 250.03" stroke="#1D374A" stroke-width="0.889" stroke-linecap="round" stroke-linejoin="round"/>
<path d="M297.466 159.583C304.476 159.76 311.57 160.156 318.713 160.788C347.895 163.366 377.814 169.886 405.498 181.559C405.604 181.603 405.707 181.648 405.813 181.693C408.689 182.91 415.97 186.338 416.877 192.756C418.064 201.108 413.592 217.155 406.551 231.365C406.498 231.472 406.444 231.579 406.391 231.69C399.59 245.3 390.438 257.155 381.664 258.808C381.664 258.808 376.187 260.004 368.325 256.472L312.195 235.413" fill="#FFEA98"/>
<path d="M406.551 231.365C406.498 231.472 406.445 231.578 406.392 231.689C399.484 245.287 390.309 257.129 381.664 258.808C380.93 258.947 380.206 259.018 379.486 259.008C379.081 259.004 378.646 258.973 378.188 258.924C378.094 258.915 378.001 258.907 377.908 258.893C377.77 258.876 377.628 258.858 377.485 258.84C377.347 258.818 377.201 258.8 377.059 258.773C376.827 258.738 376.596 258.697 376.365 258.657C372.787 258 368.902 256.653 368.902 256.653C395.119 235.428 405.822 200.073 405.498 181.559C405.604 181.604 405.707 181.648 405.813 181.693C408.69 182.91 415.97 186.338 416.877 192.756C418.064 201.108 413.592 217.155 406.551 231.365Z" fill="white"/>
<path d="M297.466 159.583C304.476 159.76 311.57 160.156 318.713 160.788C347.895 163.366 377.814 169.886 405.498 181.559C405.604 181.603 405.707 181.648 405.813 181.693C408.689 182.91 415.97 186.338 416.877 192.756C418.064 201.108 413.592 217.155 406.551 231.365C406.498 231.472 406.444 231.579 406.391 231.69C399.59 245.3 390.438 257.155 381.664 258.808C381.664 258.808 376.187 260.004 368.325 256.472L312.195 235.413" stroke="#1D374A" stroke-width="0.889" stroke-linecap="round" stroke-linejoin="round"/>
<path d="M217.434 234.096L217.605 235.976L217.695 236.991C217.695 236.995 217.697 236.999 217.693 237.005C221.676 273.35 250.683 303.814 289.747 308.687C329.784 313.683 367.887 291.539 379.345 249.67C382.32 238.796 381.817 228.109 380.996 221.659" fill="#FFEA98"/>
<path d="M333.118 302.987C324.006 306.367 313.533 309.829 294.776 308.867C287.323 308.483 280.13 307.146 273.334 304.976C273.328 304.973 273.324 304.974 273.324 304.974C242.745 294.788 214.621 262.894 217.194 221.659C220.532 222.679 227.954 231.323 228.845 234.428C229.98 238.38 231.458 244.148 233.204 248.378C245.864 279.043 270.634 303.465 305.735 305.272C315.63 305.778 326.938 304.92 333.118 302.987Z" fill="#FFD370"/>
<path d="M217.434 234.096L217.605 235.976L217.695 236.991C217.695 236.995 217.697 236.999 217.693 237.005C221.676 273.35 250.683 303.814 289.747 308.687C329.784 313.683 367.887 291.539 379.345 249.67C382.32 238.796 381.817 228.109 380.996 221.659" stroke="#1D374A" stroke-width="0.889" stroke-linecap="round" stroke-linejoin="round"/>
<path d="M302.995 159.768C223.741 156.099 179.54 181.204 179.54 181.204C166.187 188.653 164.499 193.601 164.561 197.348C164.779 211.327 183.652 239.144 199.8 252.506C199.823 252.524 199.845 252.537 199.863 252.555C199.872 252.564 199.876 252.568 199.885 252.572C206.717 258.022 213.367 261.516 217.87 259.787C219.514 259.156 221.159 258.333 222.75 257.404C222.75 257.404 241.927 242.523 247.56 240.024C247.56 240.024 261.524 229.969 339.387 238.559C355.385 240.324 333.481 177.343 318.174 165.965C309.443 159.474 302.995 159.768 302.995 159.768Z" fill="#FFEA98"/>
<path d="M297.466 159.584C259.995 162.233 210.553 172.492 189.035 188.374C185.643 185.142 182.594 183.573 179.198 181.493C179.336 181.422 179.452 181.324 179.541 181.204C179.843 181.044 180.149 180.888 180.465 180.728C206.237 167.278 249.816 158.379 297.466 159.584Z" fill="#FFD370"/>
<path d="M230.934 251.571C227.47 254.453 222.667 257.946 217.871 259.787C213.365 261.517 206.718 258.02 199.885 252.573C199.856 252.549 199.828 252.526 199.802 252.507C183.654 239.144 164.777 211.326 164.559 197.346C164.5 193.673 166.125 188.023 180.324 180.912C189.482 185.762 199.495 195.751 208.731 207.098C220.82 221.948 230.073 240.366 230.934 251.571Z" fill="white"/>
<path d="M302.995 159.768C223.741 156.099 179.54 181.204 179.54 181.204C166.187 188.653 164.499 193.601 164.561 197.348C164.779 211.327 183.652 239.144 199.801 252.506C199.823 252.524 199.845 252.537 199.863 252.555C199.872 252.564 199.876 252.568 199.885 252.572C206.717 258.022 213.367 261.516 217.87 259.787C219.514 259.156 221.159 258.333 222.75 257.404C222.75 257.404 241.926 242.523 247.56 240.024" stroke="#1D374A" stroke-width="0.889" stroke-linecap="round" stroke-linejoin="round"/>
<path d="M301.516 172.456C291.79 172.456 283.461 165.772 285.007 159.494C289.123 159.45 293.279 159.476 297.466 159.583C304.476 159.761 311.57 160.156 318.713 160.788C318.804 166.611 311.241 172.456 301.516 172.456Z" fill="#1D374A"/>
<path d="M170.174 195.525C173.946 192.731 186.865 203.775 199.029 220.195C211.194 236.616 217.996 252.192 214.224 254.986C210.453 257.78 197.534 246.735 185.369 230.315C173.205 213.895 166.403 198.319 170.174 195.525Z" fill="#1D374A"/>
<path d="M170.174 195.525C173.946 192.731 186.865 203.775 199.029 220.195C211.194 236.616 217.996 252.192 214.224 254.986C210.453 257.78 197.534 246.735 185.369 230.315C173.205 213.895 166.403 198.319 170.174 195.525Z" stroke="#1D374A"/>
<mask id="mask10_28_447" style="mask-type:alpha" maskUnits="userSpaceOnUse" x="-125" y="139" width="341" height="295">
<path d="M170.049 196.275C173.821 193.481 186.74 204.525 198.904 220.945C211.069 237.365 217.872 252.942 214.1 255.736C210.328 258.531 137.87 542.769 0.244062 386.565C-358.006 -20.0449 166.277 199.069 170.049 196.275Z" fill="#1D374A"/>
</mask>
<g mask="url(#mask10_28_447)">
<path d="M62.9598 220.733C75.126 229.125 100.47 238.92 123.078 238.374C142.36 237.909 156.837 224.074 167.872 209.653L172.963 202.555C177.947 197.141 195.137 183.354 206.428 188.224C213.07 191.089 231.902 204.538 235.101 209.329C243.619 222.087 225.727 237.721 220.026 245.848C195.238 282.077 162.19 303.092 124.069 300.767C92.8297 298.862 66.712 280.47 45.76 277.374C45.76 277.374 11.9694 273.221 20.1337 244.647C26.0828 223.825 62.9598 220.733 62.9598 220.733Z" stroke="#1D374A" stroke-width="0.889" stroke-linecap="round" stroke-linejoin="round"/>
<path d="M62.9598 220.733C75.126 229.125 100.47 238.92 123.078 238.374C142.36 237.909 156.837 224.074 167.872 209.653L172.963 202.555C177.947 197.141 195.137 183.354 206.428 188.224C213.07 191.089 231.902 204.538 235.101 209.329C243.619 222.087 225.727 237.721 220.026 245.848C195.238 282.077 162.19 303.092 124.069 300.767C92.8297 298.862 66.712 280.47 45.76 277.374C45.76 277.374 11.9694 273.221 20.1337 244.647C26.0828 223.825 62.9598 220.733 62.9598 220.733Z" fill="#FFD8C3"/>
<path d="M220.026 245.848C195.24 282.078 162.189 303.092 124.067 300.767C98.4912 299.204 76.3474 286.596 57.6646 280.379C76.238 285.544 98.3292 295.645 122.853 295.429C160.039 295.106 194.308 269.761 213.345 236.215C218.502 228.109 235.165 221.228 236.131 222.563C237.577 224.561 219.221 244.259 220.026 245.848Z" fill="#F5BCAF"/>
<path d="M62.9598 220.733C75.126 229.125 100.47 238.92 123.078 238.374C142.36 237.909 156.837 224.074 167.872 209.653L172.963 202.555C177.947 197.141 195.137 183.354 206.428 188.224C213.07 191.089 231.902 204.538 235.101 209.329C243.619 222.087 225.727 237.721 220.026 245.848C195.238 282.077 162.19 303.092 124.069 300.767C92.8297 298.862 66.712 280.47 45.76 277.374C45.76 277.374 11.9694 273.221 20.1337 244.647C26.0828 223.825 62.9598 220.733 62.9598 220.733Z" stroke="#1D374A" stroke-width="0.889" stroke-linecap="round" stroke-linejoin="round"/>
</g>
<path d="M51.584 239.399C47.8974 232.069 40.3681 228.415 40.3681 228.415C17.7999 226.616 34.7781 216.981 29.0609 210.844C18.3471 199.342 2.315 237.822 16.4559 241.273" fill="#FFD8C3"/>
<path d="M51.584 239.399C47.8974 232.069 40.3681 228.415 40.3681 228.415C17.7999 226.616 34.7781 216.981 29.0609 210.844C18.3471 199.342 2.315 237.822 16.4559 241.273" stroke="#1D374A" stroke-width="0.889" stroke-linecap="round" stroke-linejoin="round"/>
<path d="M25.0153 239.287C14.5907 234.983 17.344 217.126 8.51666 219.774C-1.47367 222.771 0.501372 251.182 19.243 259.63C25.0279 259.277 26.0948 259.864 26.0948 259.864" fill="#FFD8C3"/>
<path d="M25.0153 239.287C14.5907 234.983 17.344 217.126 8.51666 219.774C-1.47367 222.771 0.501372 251.182 19.243 259.63C25.0279 259.277 26.0948 259.864 26.0948 259.864" stroke="#1D374A" stroke-width="0.889" stroke-linecap="round" stroke-linejoin="round"/>
<path d="M28.2125 248.106C19.8567 249.683 6.35976 228.516 3.61682 243.564C1.86501 253.174 9.26366 268.689 41.9554 276.708" fill="#FFD8C3"/>
<path d="M28.2125 248.106C19.8567 249.683 6.35976 228.516 3.61682 243.564C1.86501 253.174 9.26366 268.689 41.9554 276.708" stroke="#1D374A" stroke-width="0.889" stroke-linecap="round" stroke-linejoin="round"/>
<path d="M27.1331 232.359C25.9234 236.253 26.452 247.158 29.6617 252.259Z" fill="#FFD8C3"/>
<path d="M27.1331 232.359C25.9234 236.253 26.452 247.158 29.6617 252.259" stroke="#1D374A" stroke-width="0.889" stroke-linecap="round" stroke-linejoin="round"/>
<path d="M50.0791 247.062C41.6848 241.453 38.3097 232.635 37.3891 229.738C37.1906 229.114 34.6195 226.067 33.2268 224.232C33.2268 224.232 26.0386 213.754 28.6334 206.214C31.2279 198.675 40.4182 206.915 44.0708 210.044C44.0708 210.044 57.956 218.125 67.1099 222.724C76.2638 227.324 82.465 230.573 82.465 230.573" fill="#FFD8C3"/>
<path d="M50.0791 247.062C41.6848 241.453 38.3097 232.635 37.3891 229.738C37.1906 229.114 34.6195 226.067 33.2268 224.232C33.2268 224.232 26.0386 213.754 28.6334 206.214C31.2279 198.675 40.4182 206.915 44.0708 210.044C44.0708 210.044 57.956 218.125 67.1099 222.724C76.2638 227.324 82.465 230.573 82.465 230.573" stroke="#1D374A" stroke-width="0.889" stroke-linecap="round" stroke-linejoin="round"/>
<path d="M370.775 118.536C367.58 124.779 359.928 127.25 353.684 124.055C347.441 120.86 344.97 113.208 348.166 106.965C351.361 100.721 359.012 98.2504 365.256 101.445C371.499 104.641 373.97 112.293 370.775 118.536Z" fill="#FFD8C3"/>
<path d="M353.686 124.055C359.727 127.147 367.086 124.934 370.453 119.126C366.657 122.398 361.113 123.232 356.375 120.812C350.132 117.616 347.66 109.961 350.856 103.718C350.961 103.516 351.07 103.319 351.182 103.126C349.969 104.168 348.939 105.457 348.167 106.966C344.971 113.209 347.443 120.859 353.686 124.055Z" fill="#F5BCAF"/>
<path d="M348.635 106.126C352.063 100.505 359.3 98.3979 365.256 101.446C371.499 104.641 373.97 112.293 370.775 118.536C367.579 124.78 359.928 127.251 353.684 124.055C350.394 122.372 348.152 119.45 347.234 116.15" stroke="#1D374A" stroke-width="0.889" stroke-linecap="round" stroke-linejoin="round"/>
<path d="M352.531 112.869C353.131 108.657 356.937 105.715 361.035 106.298C363.355 106.628 365.27 108.016 366.387 109.923" stroke="#1D374A" stroke-width="0.889" stroke-linecap="round" stroke-linejoin="round"/>
<path d="M266.643 107.687C267.069 132.846 287.809 152.896 312.968 152.471C338.127 152.046 358.178 131.305 357.752 106.146C357.327 80.9869 336.586 60.9364 311.427 61.3617C286.268 61.7871 266.218 82.5275 266.643 107.687Z" fill="#FFD8C3"/>
<path d="M311.428 61.3617C311.582 61.3591 311.733 61.3644 311.886 61.3635L314.949 66.8611C291.2 67.3309 272.536 85.783 272.932 109.181C273.328 132.62 292.705 152.147 316.513 151.744C318.878 151.705 321.198 151.478 323.455 151.076C320.094 151.929 316.586 152.41 312.968 152.471C287.809 152.897 267.069 132.846 266.644 107.687C266.218 82.5275 286.269 61.7871 311.428 61.3617Z" fill="#F5BCAF"/>
<path d="M266.643 107.687C267.069 132.846 287.809 152.896 312.968 152.471C338.127 152.046 358.178 131.305 357.752 106.146C357.327 80.9869 336.586 60.9364 311.427 61.3617C286.268 61.7871 266.218 82.5275 266.643 107.687Z" stroke="#1D374A" stroke-width="0.889" stroke-linecap="round" stroke-linejoin="round"/>
<path d="M248.912 97.5392C249.039 105.025 255.21 110.992 262.696 110.866C270.182 110.739 276.149 104.568 276.022 97.0813C275.896 89.5946 269.724 83.6281 262.237 83.7548C254.751 83.881 248.785 90.0529 248.912 97.5392Z" fill="#FFD8C3"/>
<path d="M272.875 106.069C271.984 106.639 270.832 107.106 269.788 107.46C262.691 109.854 254.96 105.782 252.567 98.6891C250.996 94.0356 252.223 89.4421 255.168 85.9435C249.996 89.2012 247.4 95.3615 249.44 101.414C251.829 108.509 259.522 112.322 266.619 109.928C269.058 109.106 271.331 107.911 272.875 106.069Z" fill="#F5BCAF"/>
<path d="M275.967 96.0559C275.324 89.0572 269.379 83.6339 262.237 83.7548C254.751 83.8814 248.785 90.0529 248.911 97.5391C249.038 105.026 255.21 110.992 262.696 110.865C266.641 110.799 270.443 108.801 272.874 106.069" stroke="#1D374A" stroke-width="0.889" stroke-linecap="round" stroke-linejoin="round"/>
<path d="M270.163 99.2731C270.438 94.7401 267.085 90.8481 262.674 90.5809C260.178 90.4294 257.877 91.4717 256.301 93.227" stroke="#1D374A" stroke-width="0.889" stroke-linecap="round" stroke-linejoin="round"/>
<path d="M271.132 81.5816C273.898 80.2899 276.858 79.1555 279.975 78.1914C284.128 65.3396 295.397 55.3197 309.544 52.2446C312.264 51.6561 315.094 51.3192 317.996 51.2703C320.086 51.2347 322.146 51.3463 324.155 51.6014C320.518 50.7827 316.715 50.3804 312.799 50.4466C309.555 50.5017 306.396 50.8747 303.353 51.5356C287.447 54.9965 274.804 66.3019 270.234 80.7877C270.065 81.3287 270.621 81.8216 271.132 81.5816Z" fill="#FF9A2D"/>
<path d="M303.354 51.537C287.532 54.9765 275.055 66.2006 270.308 80.5584C270.024 81.4185 270.752 81.7563 271.352 81.4798C282.24 76.4538 296.045 73.7997 310.92 74.5558C317.304 74.8808 323.429 75.8107 329.157 77.2491C329.997 72.993 329.915 68.7964 328.986 65.0177C331.625 68.7898 333.539 73.5024 334.413 78.7457C343.366 81.6065 351.139 85.751 357.13 90.7547C357.711 91.2397 358.608 91.0166 358.549 90.0533C358.257 85.2669 357.096 80.7028 355.238 76.4867C348.378 60.9337 331.878 50.1243 312.799 50.447C309.554 50.5022 306.395 50.876 303.354 51.537Z" fill="#FCAA51"/>
<path d="M303.354 51.537C287.532 54.9765 275.055 66.2006 270.308 80.5584C270.024 81.4185 270.752 81.7563 271.352 81.4798C282.24 76.4538 296.045 73.7997 310.92 74.5558C317.304 74.8808 323.429 75.8107 329.157 77.2491C329.997 72.993 329.915 68.7964 328.986 65.0177C331.625 68.7898 333.539 73.5024 334.413 78.7457C343.366 81.6065 351.139 85.751 357.13 90.7547C357.711 91.2397 358.608 91.0166 358.549 90.0533C358.257 85.2669 357.096 80.7028 355.238 76.4867C348.378 60.9337 331.878 50.1243 312.799 50.447C309.554 50.5022 306.395 50.876 303.354 51.537Z" stroke="#1D374A" stroke-width="0.889" stroke-linecap="round" stroke-linejoin="round"/>
<mask id="mask11_28_447" style="mask-type:alpha" maskUnits="userSpaceOnUse" x="266" y="60" width="93" height="93">
<path d="M266.643 107.687C267.069 132.846 287.809 152.896 312.968 152.471C338.127 152.046 358.178 131.305 357.752 106.146C357.327 80.9869 336.586 60.9364 311.427 61.3617C286.268 61.7871 266.218 82.5275 266.643 107.687Z" fill="#FFD8C3"/>
<path d="M311.428 61.3617C311.582 61.3591 311.733 61.3644 311.886 61.3635L314.949 66.8611C291.2 67.3309 272.536 85.783 272.932 109.181C273.328 132.62 292.705 152.147 316.513 151.744C318.878 151.705 321.198 151.478 323.455 151.076C320.094 151.929 316.586 152.41 312.968 152.471C287.809 152.897 267.069 132.846 266.644 107.687C266.218 82.5275 286.269 61.7871 311.428 61.3617Z" fill="#F5BCAF"/>
<path d="M266.643 107.687C267.069 132.846 287.809 152.896 312.968 152.471C338.127 152.046 358.178 131.305 357.752 106.146C357.327 80.9869 336.586 60.9364 311.427 61.3617C286.268 61.7871 266.218 82.5275 266.643 107.687Z" stroke="#1D374A" stroke-width="0.889" stroke-linecap="round" stroke-linejoin="round"/>
</mask>
<g mask="url(#mask11_28_447)">
<path d="M340.404 111.238C343.358 110.876 345.946 112.165 346.185 114.116C346.425 116.068 344.224 117.943 341.271 118.305C338.317 118.668 335.728 117.379 335.489 115.428C335.25 113.476 337.45 111.6 340.404 111.238Z" fill="#FFADDD"/>
<path d="M301.347 104.584C298.658 103.311 295.796 103.72 294.955 105.497C294.114 107.274 295.612 109.746 298.302 111.02C300.992 112.292 303.854 111.884 304.694 110.107C305.536 108.329 304.037 105.856 301.347 104.584Z" fill="#FFADDD"/>
</g>
<path d="M306.362 85.2928C302.94 85.6955 300.467 87.3286 300.84 88.9408C301.213 90.5534 304.29 91.5344 307.713 91.1317C311.135 90.729 313.608 89.0959 313.235 87.4837C312.862 85.8711 309.785 84.89 306.362 85.2928Z" fill="#1D374A"/>
<path d="M342.014 90.3654C340.77 90.4583 339.739 90.8997 339.213 91.6678C338.155 93.2111 339.537 95.4905 342.3 96.7591C343.688 97.3965 345.159 97.6574 346.415 97.5636C347.659 97.4707 348.69 97.0293 349.216 96.2612C350.274 94.7179 348.892 92.4372 346.13 91.1695C344.742 90.5325 343.27 90.2716 342.014 90.3654Z" fill="#1D374A"/>
<path d="M303.424 97.6991C303.476 98.2577 305.379 98.705 307.674 98.698C309.971 98.6909 311.791 98.2321 311.739 97.6735C311.687 97.1148 309.783 96.6677 307.487 96.6748C305.191 96.6819 303.372 97.1404 303.424 97.6991Z" fill="#1D374A"/>
<path d="M335.2 101.872C334.44 103.973 335.101 106.139 336.678 106.71C338.254 107.28 340.148 106.038 340.909 103.937C341.669 101.835 341.007 99.6692 339.431 99.0989C337.855 98.5286 335.961 99.7701 335.2 101.872Z" fill="#1D374A"/>
<path d="M328.931 115.298C328.997 116.141 328.233 116.809 327.402 116.662L319.641 115.28L313.969 114.267C313.147 114.12 312.667 113.244 313 112.475C313.271 111.849 315.14 111.129 321.155 112.306C324.855 113.03 328.811 113.787 328.931 115.298Z" fill="#1D374A"/>
<path d="M328.931 115.298C328.997 116.141 328.233 116.809 327.402 116.662L319.641 115.28L313.969 114.267C313.147 114.12 312.667 113.244 313 112.475C313.271 111.849 315.14 111.129 321.155 112.306C324.855 113.03 328.811 113.787 328.931 115.298Z" stroke="#1D374A" stroke-width="0.889" stroke-linecap="round" stroke-linejoin="round"/>
<path d="M319.641 115.28L315.155 114.524C314.333 114.377 313.027 113.313 313 112.475C312.978 111.762 312.674 109.901 315.113 109.86C317.551 109.82 318.61 113.186 319.641 115.28Z" fill="#FFAAE1"/>
<path d="M319.641 115.28L315.155 114.524C314.333 114.377 313.027 113.313 313 112.475C312.978 111.762 312.674 109.901 315.113 109.86C317.551 109.82 318.61 113.186 319.641 115.28Z" stroke="#1D374A" stroke-width="0.889" stroke-linecap="round" stroke-linejoin="round"/>
<path d="M539.154 77.1861L509.942 81.4222L480.24 85.7294L466.612 87.7074L461.429 88.4586L440.564 91.4856L417.077 94.8905L407.742 96.2462L402.608 96.9708L338.6 106.021C336.431 105.523 335.2 101.887 337.125 99.9489C337.125 99.9489 370.071 81.4488 408.44 60.3751C450.868 37.0788 499.923 10.6355 518.405 2.59009L539.154 77.1861Z" fill="#DFE0FE"/>
<path d="M539.154 77.1861L509.942 81.4222L480.24 85.7294L466.612 87.7074L461.429 88.4586L440.564 91.4856L417.077 94.8905L407.742 96.2462L402.608 96.9708L338.6 106.021C336.431 105.523 335.2 101.887 337.125 99.9489C337.125 99.9489 370.071 81.4488 408.44 60.3751C450.868 37.0788 499.923 10.6355 518.405 2.59009L539.154 77.1861Z" stroke="#1D374A" stroke-width="0.889" stroke-linecap="round" stroke-linejoin="round"/>
<path d="M482.258 85.1115C465.687 85.1115 452.286 71.3587 452.286 54.6899C452.286 43.8797 457.829 34.4163 466.301 29.0956C454.939 34.8652 447.156 46.6623 447.156 60.2773C447.156 71.8432 452.774 82.0978 461.429 88.4586L466.612 87.7074L480.24 85.7294L486.027 84.8893C484.796 85.0404 483.534 85.1115 482.258 85.1115Z" fill="#B6B4F7"/>
<path d="M421.878 94.1931L417.077 94.891L407.743 96.2467L402.608 96.9712C398.701 92.7974 396.309 87.1878 396.309 81.0137C396.309 72.1326 401.262 64.4116 408.56 60.4556C403.84 63.8471 400.76 69.3811 400.76 75.6397C400.76 85.9521 409.111 94.3487 419.423 94.3487C420.246 94.3487 421.082 94.2998 421.878 94.1931Z" fill="#B6B4F7"/>
<path d="M539.154 77.1861L509.942 81.4222L480.24 85.7294L466.612 87.7074L461.429 88.4586L440.564 91.4856L417.077 94.8905L407.742 96.2462L402.608 96.9708L338.6 106.021C336.431 105.523 335.2 101.887 337.125 99.9489C337.125 99.9489 370.071 81.4488 408.44 60.3751C450.868 37.0788 499.923 10.6355 518.405 2.59009L539.154 77.1861Z" stroke="#1D374A" stroke-width="0.889" stroke-linecap="round" stroke-linejoin="round"/>
<path d="M411.24 58.8553C410.298 59.3132 409.404 59.851 408.56 60.4555C403.84 63.8471 400.759 69.3811 400.759 75.6397C400.759 85.9521 409.111 94.3487 419.423 94.3487C420.246 94.3487 421.082 94.2998 421.877 94.1931" stroke="#1D374A" stroke-width="0.889" stroke-linecap="round" stroke-linejoin="round"/>
<path d="M468.621 27.771C467.825 28.1755 467.052 28.6155 466.3 29.0956C457.829 34.4163 452.286 43.8797 452.286 54.6899C452.286 71.3587 465.687 85.1115 482.258 85.1115C483.534 85.1115 484.796 85.0404 486.027 84.8892C486.045 84.8892 486.058 84.8848 486.077 84.8848" stroke="#1D374A" stroke-width="0.889" stroke-linecap="round" stroke-linejoin="round"/>
<path d="M571.881 38.7337C571.881 60.2426 554.444 77.679 532.936 77.679C511.426 77.679 493.99 60.2426 493.99 38.7337C493.99 17.2248 511.426 -0.211578 532.936 -0.211578C554.444 -0.211578 571.881 17.2248 571.881 38.7337Z" fill="#DFE0FE"/>
<path d="M571.881 38.7337C571.881 60.2426 554.444 77.679 532.936 77.679C511.426 77.679 493.99 60.2426 493.99 38.7337C493.99 17.2248 511.426 -0.211578 532.936 -0.211578C554.444 -0.211578 571.881 17.2248 571.881 38.7337Z" stroke="#1D374A" stroke-width="0.889" stroke-linecap="round" stroke-linejoin="round"/>
<path d="M565.268 38.7328C565.268 56.5884 550.791 71.0613 532.935 71.0613C515.08 71.0613 500.607 56.5884 500.607 38.7328C500.607 20.8773 515.08 6.40436 532.935 6.40436C550.791 6.40436 565.268 20.8773 565.268 38.7328Z" stroke="#1D374B" stroke-width="1.778"/>
<path d="M565.266 38.7337C565.266 56.5889 550.791 71.0631 532.936 71.0631C515.081 71.0631 500.606 56.5889 500.606 38.7337C500.606 20.8786 515.081 6.40436 532.936 6.40436C550.791 6.40436 565.266 20.8786 565.266 38.7337Z" fill="#9C9CF7"/>
<mask id="mask12_28_447" style="mask-type:alpha" maskUnits="userSpaceOnUse" x="499" y="5" width="68" height="67">
<path d="M565.268 38.7328C565.268 56.5884 550.791 71.0613 532.935 71.0613C515.08 71.0613 500.607 56.5884 500.607 38.7328C500.607 20.8773 515.08 6.40436 532.935 6.40436C550.791 6.40436 565.268 20.8773 565.268 38.7328Z" stroke="#1D374B" stroke-width="1.778"/>
<path d="M565.266 38.7337C565.266 56.5889 550.791 71.0631 532.936 71.0631C515.081 71.0631 500.606 56.5889 500.606 38.7337C500.606 20.8786 515.081 6.40436 532.936 6.40436C550.791 6.40436 565.266 20.8786 565.266 38.7337Z" fill="#9C9CF7"/>
</mask>
<g mask="url(#mask12_28_447)">
<path d="M564.44 39.753C564.885 39.1471 564.886 38.3261 564.444 37.7185C558.384 29.4099 547.091 19.5038 532.892 19.5038C519.959 19.5038 508.3 28.9912 501.507 37.5825C500.971 38.2612 500.958 39.2151 501.483 39.9028C508.012 48.4581 520.223 57.9721 532.892 57.9646C546.132 57.9566 558.22 48.234 564.44 39.753Z" fill="white"/>
</g>
<mask id="mask13_28_447" style="mask-type:alpha" maskUnits="userSpaceOnUse" x="499" y="5" width="68" height="67">
<path d="M565.268 38.7328C565.268 56.5884 550.791 71.0613 532.935 71.0613C515.08 71.0613 500.607 56.5884 500.607 38.7328C500.607 20.8773 515.08 6.40436 532.935 6.40436C550.791 6.40436 565.268 20.8773 565.268 38.7328Z" stroke="#1D374B" stroke-width="1.778"/>
<path d="M565.266 38.7337C565.266 56.5889 550.791 71.0631 532.936 71.0631C515.081 71.0631 500.606 56.5889 500.606 38.7337C500.606 20.8786 515.081 6.40436 532.936 6.40436C550.791 6.40436 565.266 20.8786 565.266 38.7337Z" fill="#9C9CF7"/>
</mask>
<g mask="url(#mask13_28_447)">
<path d="M552.174 38.7337C552.174 49.3586 543.561 57.9717 532.936 57.9717C522.311 57.9717 513.697 49.3586 513.697 38.7337C513.697 28.1089 522.311 19.4958 532.936 19.4958C543.561 19.4958 552.174 28.1089 552.174 38.7337Z" fill="#1D374A"/>
</g>
<path d="M389.843 83.7508C386.069 82.5053 384.356 75.3746 386.017 67.8239C387.678 60.2732 392.083 55.1614 395.857 56.4069C399.631 57.6524 401.343 64.7835 399.683 72.3342C398.021 79.885 393.616 84.9963 389.843 83.7508Z" fill="#FFD8C3"/>
<path d="M389.843 83.7508C386.069 82.5053 384.356 75.3746 386.017 67.8239C387.678 60.2732 392.083 55.1614 395.857 56.4069C399.631 57.6524 401.343 64.7835 399.683 72.3342C398.021 79.885 393.616 84.9963 389.843 83.7508Z" stroke="#1D374A" stroke-width="0.889" stroke-linecap="round" stroke-linejoin="round"/>
<path d="M401.733 75.9571C397.758 74.6449 395.897 67.3938 397.576 59.7604C399.254 52.127 403.838 47.0023 407.813 48.3145C411.788 49.6262 413.649 56.8778 411.969 64.5112C410.29 72.1446 405.708 77.2692 401.733 75.9571Z" fill="#FFD8C3"/>
<path d="M401.733 75.9571C397.758 74.6449 395.897 67.3938 397.576 59.7604C399.254 52.127 403.838 47.0023 407.813 48.3145C411.788 49.6262 413.649 56.8778 411.969 64.5112C410.29 72.1446 405.708 77.2692 401.733 75.9571Z" stroke="#1D374A" stroke-width="0.889" stroke-linecap="round" stroke-linejoin="round"/>
<path d="M412.116 71.2618C408.263 69.4984 407.11 61.9984 409.541 54.5094C411.972 47.0205 417.065 42.379 420.918 44.1419C424.77 45.9053 425.923 53.4053 423.492 60.8942C421.062 68.3832 415.968 73.0247 412.116 71.2618Z" fill="#FFD8C3"/>
<path d="M412.116 71.2618C408.263 69.4984 407.11 61.9984 409.541 54.5094C411.972 47.0205 417.065 42.379 420.918 44.1419C424.77 45.9053 425.923 53.4053 423.492 60.8942C421.062 68.3832 415.968 73.0247 412.116 71.2618Z" stroke="#1D374A" stroke-width="0.889" stroke-linecap="round" stroke-linejoin="round"/>
<path d="M431.461 97.6988C431.461 97.6988 424.198 93.3401 412.054 95.6097C412.054 95.6097 394.91 91.5585 393.329 98.5607C391.74 105.598 405.183 108.143 419.095 120.508" fill="#FFD8C3"/>
<path d="M431.461 97.6988C431.461 97.6988 424.198 93.3401 412.054 95.6097C412.054 95.6097 394.91 91.5585 393.329 98.5607C391.74 105.598 405.183 108.143 419.095 120.508" stroke="#1D374A" stroke-width="0.889" stroke-linecap="round" stroke-linejoin="round"/>
<path d="M244.464 415.461C227.129 426.356 201.604 431.925 182.925 420.926C194.657 394.004 224.095 367.198 247.858 353.233C247.858 353.233 260.612 367.323 268.673 375.424" fill="#FFADDD"/>
<path d="M247.238 353.154C247.238 353.154 260.035 367.205 268.121 375.28L263.283 379.294C255.369 373.198 243.15 363.487 234.212 361.672C234.118 361.653 241.885 356.32 247.238 353.154Z" fill="#FF95DA"/>
<path d="M262.5 393.875C262.5 393.875 262.197 404.358 244.464 415.461C226.731 426.564 201.604 431.925 182.925 420.926C194.657 394.004 224.095 367.198 247.858 353.233C247.858 353.233 260.612 367.323 268.673 375.424" stroke="#1D374A" stroke-width="0.889" stroke-linecap="round" stroke-linejoin="round"/>
<path d="M260.559 388.365C251.635 381.591 244.097 380.304 231.748 386.122C218.521 392.353 215.521 387.064 209.152 384.768" stroke="white" stroke-width="2.2225" stroke-linecap="round" stroke-linejoin="round"/>
<path d="M174.427 415.121C173.9 414.646 173.593 414.041 173.65 413.251C174.69 398.877 211.378 358.292 236.411 345.434C238.555 344.332 239.854 344.886 240.992 345.828L247.858 353.233C224.095 367.198 194.657 394.004 182.925 420.926C179.816 419.189 176.81 417.266 174.427 415.121Z" fill="white"/>
<path d="M174.427 415.121C173.9 414.646 173.593 414.041 173.65 413.251C174.69 398.877 211.378 358.292 236.411 345.434C238.555 344.332 239.854 344.886 240.992 345.828L247.858 353.233C224.095 367.198 194.657 394.004 182.925 420.926C179.816 419.189 176.81 417.266 174.427 415.121Z" stroke="#1D374A" stroke-width="0.889" stroke-linecap="round" stroke-linejoin="round"/>
<path d="M220.484 413.616C218.873 412.29 218.643 409.909 219.969 408.298C221.295 406.687 223.676 406.457 225.288 407.782C226.898 409.109 227.129 411.49 225.803 413.101C224.476 414.712 222.095 414.942 220.484 413.616Z" fill="#FFEA98"/>
<path d="M221.621 410.35C217.098 415.432 214.916 423.284 215.016 426.163C215.04 426.858 215.623 427.401 216.318 427.378C217.013 427.353 217.556 426.771 217.533 426.076C217.455 423.865 219.483 416.327 223.766 411.734C224.24 411.226 224.214 410.429 223.706 409.955C223.197 409.48 222.401 409.508 221.927 410.016C221.824 410.126 221.722 410.237 221.621 410.35Z" fill="white"/>
<path d="M221.621 410.35C217.098 415.432 214.916 423.284 215.016 426.163C215.04 426.858 215.623 427.401 216.318 427.378C217.013 427.353 217.556 426.771 217.533 426.076C217.455 423.865 219.483 416.327 223.766 411.734C224.24 411.226 224.214 410.429 223.706 409.955C223.197 409.48 222.401 409.508 221.927 410.016C221.824 410.126 221.722 410.237 221.621 410.35Z" stroke="#1D374A" stroke-width="0.889" stroke-linecap="round" stroke-linejoin="round"/>
<path d="M208.641 413.037C206.992 411.759 206.691 409.386 207.969 407.736C209.247 406.087 211.62 405.786 213.27 407.064C214.919 408.342 215.22 410.715 213.942 412.364C212.664 414.014 210.291 414.315 208.641 413.037Z" fill="#FFEA98"/>
<path d="M209.681 409.739C205.311 414.952 203.697 423.801 203.882 426.676C203.927 427.37 204.526 427.897 205.22 427.852C205.914 427.807 206.439 427.208 206.395 426.514C206.253 424.307 207.721 415.776 211.867 411.059C212.325 410.537 212.275 409.741 211.753 409.282C211.231 408.823 210.436 408.874 209.977 409.396C209.877 409.508 209.778 409.623 209.681 409.739Z" fill="white"/>
<path d="M209.681 409.739C205.311 414.952 203.697 423.801 203.882 426.676C203.927 427.37 204.526 427.897 205.22 427.852C205.914 427.807 206.439 427.208 206.395 426.514C206.253 424.307 207.721 415.776 211.867 411.059C212.325 410.537 212.275 409.741 211.753 409.282C211.231 408.823 210.436 408.874 209.977 409.396C209.877 409.508 209.778 409.623 209.681 409.739Z" stroke="#1D374A" stroke-width="0.889" stroke-linecap="round" stroke-linejoin="round"/>
<path d="M310.507 293.011C336.382 288.585 374.583 287.707 412.067 302.09C458.931 320.073 467.99 383.514 415.805 401.899C366.273 419.35 316.423 423.943 273.262 420.256C264.499 419.507 254.071 417.926 244.155 415.602" fill="#B6B4F7"/>
<path d="M310.507 293.011C336.382 288.585 374.583 287.707 412.067 302.09C458.931 320.073 467.99 383.514 415.805 401.899C366.273 419.35 316.423 423.943 273.262 420.256C264.499 419.507 254.071 417.926 244.155 415.602" stroke="#1D374A" stroke-width="0.889" stroke-miterlimit="10"/>
<path d="M415.807 401.897C366.272 419.348 316.426 423.945 273.265 420.256C270.113 419.988 266.748 419.611 263.272 419.131C267.677 419.526 333.882 419.89 415.919 392.513C441.509 383.974 451.625 362.355 449.491 342.552C455.612 365.751 445.877 391.305 415.807 401.897Z" fill="#9C9CF7"/>
<path d="M273.262 420.256C264.499 419.508 254.071 417.927 244.155 415.602L310.507 293.011C336.382 288.585 374.583 287.707 412.067 302.09C458.931 320.073 467.99 383.515 415.805 401.899C366.273 419.35 316.423 423.943 273.262 420.256Z" stroke="#1D374A" stroke-width="0.889" stroke-miterlimit="10"/>
<path d="M436.124 405.819C414.853 413.86 386.221 414.246 362.041 410.633C354.993 409.578 348.324 408.189 342.325 406.545C342.325 406.545 343.518 387.579 343.695 376.152L348.733 375.796C348.733 375.796 405.906 371.626 406.055 371.577C410.54 373.718 430.968 384.765 436.124 405.819Z" fill="#FFADDD"/>
<path d="M342.325 406.545C342.325 406.545 343.518 387.578 343.695 376.151L349.944 376.836C351.069 386.761 352.593 402.295 357.505 409.979C357.557 410.06 348.323 408.189 342.325 406.545Z" fill="#FF95DA"/>
<path d="M358.103 373.266C359.301 384.404 363.538 390.771 376.245 395.759C389.855 401.101 394.974 406.768 397.675 412.976" stroke="white" stroke-width="2.2225" stroke-linecap="round" stroke-linejoin="round"/>
<path d="M436.124 405.819C414.853 413.86 386.221 414.246 362.041 410.633C354.993 409.578 348.324 408.189 342.325 406.545C342.325 406.545 343.518 387.579 343.695 376.152L348.733 375.796C348.733 375.796 405.906 371.626 406.055 371.577C410.54 373.718 430.968 384.765 436.124 405.819Z" stroke="#1D374A" stroke-width="0.889" stroke-linecap="round" stroke-linejoin="round"/>
<path d="M437.895 415.957C437.923 416.666 437.703 417.309 437.098 417.819C426.076 427.105 371.405 429.146 344.726 420.189C342.442 419.422 341.931 418.104 341.813 416.632L342.325 406.546C368.91 413.822 408.653 416.202 436.123 405.819C437.049 409.259 437.769 412.753 437.895 415.957Z" fill="white"/>
<path d="M437.895 415.957C437.923 416.666 437.703 417.309 437.098 417.819C426.076 427.105 371.405 429.146 344.726 420.189C342.442 419.422 341.931 418.104 341.813 416.632L342.325 406.546C368.91 413.822 408.653 416.202 436.123 405.819C437.049 409.259 437.769 412.753 437.895 415.957Z" stroke="#1D374A" stroke-width="0.889" stroke-linecap="round" stroke-linejoin="round"/>
<path d="M404.678 384.017C404.853 386.097 403.308 387.924 401.229 388.098C399.15 388.272 397.322 386.727 397.149 384.648C396.974 382.568 398.519 380.741 400.598 380.567C402.678 380.393 404.504 381.937 404.678 384.017Z" fill="#FFEA98"/>
<path d="M401.546 385.482C408.342 385.175 415.489 381.259 417.482 379.178C417.963 378.676 417.945 377.879 417.444 377.398C416.941 376.917 416.145 376.934 415.663 377.437C414.133 379.034 407.32 382.843 401.04 382.979C400.347 382.995 399.794 383.569 399.808 384.264C399.823 384.959 400.399 385.511 401.094 385.496C401.244 385.493 401.395 385.488 401.546 385.482Z" fill="white"/>
<path d="M401.546 385.482C408.342 385.175 415.489 381.259 417.482 379.178C417.963 378.676 417.945 377.879 417.444 377.398C416.941 376.917 416.145 376.934 415.663 377.437C414.133 379.034 407.32 382.843 401.04 382.979C400.347 382.995 399.794 383.569 399.808 384.264C399.823 384.959 400.399 385.511 401.094 385.496C401.244 385.493 401.395 385.488 401.546 385.482Z" stroke="#1D374A" stroke-width="0.889" stroke-linecap="round" stroke-linejoin="round"/>
<path d="M412.528 392.905C412.763 394.978 411.273 396.85 409.2 397.085C407.127 397.321 405.255 395.831 405.019 393.758C404.784 391.684 406.274 389.813 408.347 389.578C410.42 389.342 412.292 390.831 412.528 392.905Z" fill="#FFEA98"/>
<path d="M409.44 394.461C416.224 393.954 423.689 388.935 425.618 386.796C426.084 386.28 426.043 385.484 425.527 385.018C425.011 384.552 424.215 384.593 423.749 385.109C422.267 386.751 415.133 391.652 408.86 391.975C408.167 392.011 407.632 392.601 407.667 393.296C407.702 393.99 408.293 394.525 408.987 394.489C409.138 394.482 409.29 394.472 409.44 394.461Z" fill="white"/>
<path d="M409.44 394.461C416.224 393.954 423.689 388.935 425.618 386.796C426.084 386.28 426.043 385.484 425.527 385.018C425.011 384.552 424.215 384.593 423.749 385.109C422.267 386.751 415.133 391.652 408.86 391.975C408.167 392.011 407.632 392.601 407.667 393.296C407.702 393.99 408.293 394.525 408.987 394.489C409.138 394.482 409.29 394.472 409.44 394.461Z" stroke="#1D374A" stroke-width="0.889" stroke-linecap="round" stroke-linejoin="round"/>
<path d="M332.973 317.5C332.822 317.602 332.672 317.721 332.502 317.802C317.977 324.765 305.228 374.549 277.482 393.314C293.328 373.667 301.503 352.611 308.442 334.826C316.959 313.01 322.381 297.302 329.324 301.311C332.2 302.973 332.925 309.423 332.969 316.931C332.969 317.118 332.969 317.309 332.973 317.5Z" fill="#9C9CF7"/>
<path d="M409.886 336.169C409.619 340.61 408.935 347.295 408.215 353.669C407.171 362.959 406.055 371.578 406.055 371.578L343.713 376.152H343.696V376.147C343.687 375.934 343.683 375.72 343.678 375.512C343.673 375.427 343.673 375.343 343.673 375.258C343.611 371.498 343.767 364.964 343.887 358.51C344.007 352.5 344.1 346.562 343.967 342.996C343.967 342.996 387.608 339.907 409.886 336.169Z" fill="#FFD8C3"/>
<path d="M409.886 336.169C409.619 340.61 408.935 347.295 408.215 353.669C407.171 362.959 406.055 371.578 406.055 371.578L343.713 376.152H343.696V376.147C343.687 375.934 343.683 375.72 343.678 375.512C343.673 375.427 343.673 375.343 343.673 375.258C343.611 371.498 343.767 364.964 343.887 358.51C344.007 352.5 344.1 346.562 343.967 342.996C343.967 342.996 387.608 339.907 409.886 336.169Z" stroke="#1D374A" stroke-width="0.889" stroke-miterlimit="10"/>
<path d="M352.819 337.777L350.689 375.71C347.86 375.047 346.96 375.117 343.678 374.009C343.508 357.893 344.308 339.139 344.308 339.139L352.819 337.777Z" fill="#F5BCAF"/>
<path d="M409.886 336.169C409.619 340.61 408.935 347.295 408.215 353.669C407.171 362.959 406.055 371.578 406.055 371.578L343.713 376.152H343.696V376.147C343.687 375.934 343.683 375.72 343.678 375.512C343.673 375.427 343.673 375.343 343.673 375.258C343.611 371.498 343.767 364.964 343.887 358.51C344.007 352.5 344.1 346.562 343.967 342.996C343.967 342.996 387.608 339.907 409.886 336.169Z" stroke="#1D374A" stroke-width="0.889" stroke-miterlimit="10"/>
<path d="M408.215 353.669C407.17 362.959 406.055 371.578 406.055 371.578C389.328 376.743 362.551 379.161 343.713 376.152C343.709 376.147 343.7 376.147 343.696 376.147C343.687 375.934 343.682 375.72 343.678 375.512C343.673 375.427 343.673 375.343 343.673 375.258C343.611 371.498 343.767 364.964 343.887 358.51C363.387 359.505 389.666 357.869 408.215 353.669Z" fill="white"/>
<path d="M408.215 353.669C407.17 362.959 406.055 371.578 406.055 371.578C389.328 376.743 362.551 379.161 343.713 376.152C343.709 376.147 343.7 376.147 343.696 376.147C343.687 375.934 343.682 375.72 343.678 375.512C343.673 375.427 343.673 375.343 343.673 375.258C343.611 371.498 343.767 364.964 343.887 358.51C363.387 359.505 389.666 357.869 408.215 353.669Z" stroke="#1D374A" stroke-width="0.889" stroke-linecap="round" stroke-linejoin="round"/>
<path d="M342.875 387.751C330.375 402.001 280.639 433.817 228 409.001C184.25 388.376 180.385 321.758 210.75 275.751C231.375 244.501 266.862 204.92 330.25 202.501C395.75 200.001 410.5 263.001 411 280.001C411.382 292.995 409.875 337.251 409.875 337.251C409.875 337.251 381.5 342.876 336 343.501C333.875 343.501 332.625 341.376 332.625 337.751C332.625 334.126 334.875 301.751 329.125 301.001C323.375 300.251 317.875 308.751 313.625 321.626C309.375 334.501 290.75 382.751 276.75 392.751" fill="#B6B4F8"/>
<path d="M342.875 387.751C330.375 402.001 280.639 433.817 228 409.001C184.25 388.376 180.385 321.758 210.75 275.751C231.375 244.501 266.862 204.92 330.25 202.501C395.75 200.001 410.5 263.001 411 280.001C411.382 292.995 409.875 337.251 409.875 337.251C409.875 337.251 381.5 342.876 336 343.501C333.875 343.501 332.625 341.376 332.625 337.751C332.625 334.126 334.875 301.751 329.125 301.001C323.375 300.251 317.875 308.751 313.625 321.626C309.375 334.501 290.75 382.751 276.75 392.751" fill="#B6B4F8"/>
<path d="M303.01 205.877C302.961 205.895 302.917 205.912 302.868 205.93C260.996 220.794 217.764 258.981 204.331 318.282C194.197 363.016 213.67 402.008 244.358 415.214L244.038 415.574C210.292 407.146 183.951 369.537 191.263 324.701C191.974 320.544 192.956 316.344 194.219 312.112C206.451 271.152 232.677 241.597 262.041 223.483C262.712 223.074 263.379 222.666 264.05 222.265C264.721 221.865 265.392 221.474 266.063 221.083C266.694 220.723 267.326 220.363 267.957 220.012C268.779 219.554 269.606 219.101 270.437 218.661C271.006 218.354 271.575 218.056 272.144 217.763C272.153 217.758 272.157 217.754 272.166 217.749C272.842 217.398 273.522 217.051 274.198 216.714C274.949 216.34 275.7 215.971 276.456 215.611C276.976 215.362 277.491 215.118 278.011 214.878C278.318 214.736 278.625 214.593 278.932 214.456C286.95 210.784 295.045 207.926 303.01 205.877Z" fill="#9C9CF7"/>
<path d="M342.875 387.751C330.375 402.001 280.639 433.817 228 409.001C184.25 388.376 180.385 321.758 210.75 275.751C231.375 244.501 266.862 204.92 330.25 202.501C395.75 200.001 410.5 263.001 411 280.001C411.382 292.995 409.875 337.251 409.875 337.251C409.875 337.251 381.5 342.876 336 343.501C333.875 343.501 332.625 341.376 332.625 337.751C332.625 334.126 334.875 301.751 329.125 301.001C323.375 300.251 317.875 308.751 313.625 321.626C309.375 334.501 290.75 382.751 276.75 392.751" stroke="#1D374B" stroke-linecap="round"/>
</g>
</g>
</g>
<defs>
<clipPath id="clip0_28_447">
<rect width="572" height="429" fill="white"/>
</clipPath>
</defs>
</svg>
