<svg width="533" height="368" viewBox="0 0 533 368" fill="none" xmlns="http://www.w3.org/2000/svg">
<path fill-rule="evenodd" clip-rule="evenodd" d="M459.65 122.295V328.9C459.647 339.049 455.615 348.782 448.438 355.958C441.262 363.134 431.529 367.167 421.38 367.17H89.7198C79.5717 367.166 69.8405 363.132 62.6651 355.956C55.4897 348.78 51.4577 339.048 51.4551 328.9V48.27C51.4577 38.1218 55.4897 28.39 62.6651 21.2137C69.8405 14.0374 79.5717 10.004 89.7198 10H217.28L268.305 84.0248H421.38C431.528 84.0288 441.259 88.0625 448.435 95.2388C455.61 102.415 459.642 112.147 459.645 122.295H459.65Z" fill="#3B49B5"/>
<path fill-rule="evenodd" clip-rule="evenodd" d="M12.2479 63.5559L197.091 1.45851C199.604 0.613433 202.351 0.801456 204.726 1.98127C207.101 3.16109 208.91 5.23596 209.756 7.74963L294.148 258.948C294.993 261.462 294.805 264.208 293.626 266.583C292.446 268.958 290.371 270.768 287.857 271.613L103.009 333.712C100.496 334.557 97.7491 334.369 95.3739 333.189C92.9988 332.009 91.1896 329.934 90.3443 327.42L5.95175 76.2223C5.10667 73.7085 5.29469 70.962 6.4745 68.5869C7.65432 66.2118 9.73421 64.4013 12.2479 63.5559Z" fill="#D5D5D5"/>
<path fill-rule="evenodd" clip-rule="evenodd" d="M137.831 22.515L331.861 3.07364C333.168 2.94308 334.488 3.07113 335.746 3.45074C337.003 3.83035 338.173 4.45397 339.19 5.28594C340.206 6.11792 341.049 7.14202 341.669 8.29965C342.29 9.45728 342.676 10.7257 342.806 12.0327L369.222 275.711C369.354 277.018 369.226 278.338 368.847 279.595C368.468 280.853 367.845 282.023 367.014 283.04C366.182 284.057 365.159 284.9 364.001 285.521C362.844 286.142 361.576 286.529 360.269 286.66L166.237 306.091C163.598 306.355 160.963 305.56 158.911 303.88C156.859 302.201 155.557 299.776 155.293 297.137L128.877 33.4592C128.613 30.8205 129.408 28.1852 131.087 26.1329C132.767 24.0805 135.192 22.7791 137.831 22.515Z" fill="#EBEBEB"/>
<path fill-rule="evenodd" clip-rule="evenodd" d="M232.768 6.02497L427.191 20.9831C429.835 21.1866 432.29 22.4323 434.016 24.446C435.742 26.4596 436.598 29.0765 436.394 31.7207L416.07 295.942C415.866 298.586 414.621 301.041 412.607 302.767C410.593 304.493 407.977 305.348 405.332 305.145L210.909 290.187C208.265 289.983 205.809 288.738 204.084 286.724C202.358 284.71 201.502 282.094 201.706 279.449L222.03 15.2284C222.234 12.5841 223.479 10.1289 225.493 8.40301C227.506 6.6771 230.123 5.82157 232.768 6.02497Z" fill="white"/>
<path fill-rule="evenodd" clip-rule="evenodd" d="M162.995 105.755H492.105C502.714 105.755 512.888 109.969 520.389 117.471C527.891 124.972 532.105 135.146 532.105 145.755L473 295.5L462 326.5C457.5 340 455.891 347.243 448.389 354.744C440.888 362.246 430.714 366.46 420.105 366.46H91C80.3913 366.46 70.2171 362.246 62.7157 354.744C55.2142 347.243 52 336 53.5 325.5L59.5 305L121.5 145.5C125.5 132.5 127.214 124.972 134.716 117.471C142.217 109.969 152.391 105.755 163 105.755H162.995Z" fill="#4C5FF9"/>
</svg>
